Lipi-b181014-Tillana_1.ufo
<glyph name="dcaron" format="1">
  <advance width="823"/>
  <unicode hex="010F"/>
  <outline>
    <contour>
      <point x="884" y="621" type="curve"/>
      <point x="1000" y="707"/>
      <point x="1048" y="799"/>
      <point x="1054" y="890" type="curve"/>
      <point x="1037" y="938"/>
      <point x="953" y="996"/>
      <point x="859" y="925" type="curve"/>
      <point x="876" y="756" type="line"/>
      <point x="813" y="663" type="line"/>
      <point x="822" y="636"/>
      <point x="844" y="622"/>
    </contour>
    <component base="d"/>
  </outline>
</glyph>
<glyph name="uni0122" format="1">
  <advance width="769"/>
  <unicode hex="0122"/>
  <outline>
    <contour>
      <point x="384" y="-330" type="curve"/>
      <point x="486" y="-254"/>
      <point x="529" y="-173"/>
      <point x="534" y="-92" type="curve"/>
      <point x="519" y="-50"/>
      <point x="445" y="2"/>
      <point x="362" y="-61" type="curve"/>
      <point x="377" y="-211" type="line"/>
      <point x="321" y="-293" type="line"/>
      <point x="329" y="-317"/>
      <point x="348" y="-329"/>
    </contour>
    <component base="G"/>
  </outline>
</glyph>
<glyph name="uni0136" format="1">
  <advance width="752"/>
  <unicode hex="0136"/>
  <outline>
    <contour>
      <point x="314" y="-330" type="curve"/>
      <point x="416" y="-254"/>
      <point x="459" y="-173"/>
      <point x="464" y="-92" type="curve"/>
      <point x="449" y="-50"/>
      <point x="375" y="2"/>
      <point x="292" y="-61" type="curve"/>
      <point x="307" y="-211" type="line"/>
      <point x="251" y="-293" type="line"/>
      <point x="259" y="-317"/>
      <point x="278" y="-329"/>
    </contour>
    <component base="K"/>
  </outline>
</glyph>
<glyph name="uni0137" format="1">
  <advance width="689"/>
  <unicode hex="0137"/>
  <outline>
    <contour>
      <point x="284" y="-330" type="curve"/>
      <point x="386" y="-254"/>
      <point x="429" y="-173"/>
      <point x="434" y="-92" type="curve"/>
      <point x="419" y="-50"/>
      <point x="345" y="2"/>
      <point x="262" y="-61" type="curve"/>
      <point x="277" y="-211" type="line"/>
      <point x="221" y="-293" type="line"/>
      <point x="229" y="-317"/>
      <point x="248" y="-329"/>
    </contour>
    <component base="k"/>
  </outline>
</glyph>
<glyph name="Lcaron" format="1">
  <advance width="631"/>
  <unicode hex="013D"/>
  <outline>
    <contour>
      <point x="532" y="581" type="curve"/>
      <point x="648" y="667"/>
      <point x="696" y="759"/>
      <point x="702" y="850" type="curve"/>
      <point x="685" y="898"/>
      <point x="601" y="956"/>
      <point x="507" y="885" type="curve"/>
      <point x="524" y="716" type="line"/>
      <point x="461" y="623" type="line"/>
      <point x="470" y="596"/>
      <point x="492" y="582"/>
    </contour>
    <component base="L"/>
  </outline>
</glyph>
<glyph name="lcaron" format="1">
  <advance width="418"/>
  <unicode hex="013E"/>
  <outline>
    <contour>
      <point x="479" y="621" type="curve"/>
      <point x="595" y="707"/>
      <point x="643" y="799"/>
      <point x="649" y="890" type="curve"/>
      <point x="632" y="938"/>
      <point x="548" y="996"/>
      <point x="454" y="925" type="curve"/>
      <point x="471" y="756" type="line"/>
      <point x="408" y="663" type="line"/>
      <point x="417" y="636"/>
      <point x="439" y="622"/>
    </contour>
    <component base="l"/>
  </outline>
</glyph>
<glyph name="uni0145" format="1">
  <advance width="820"/>
  <unicode hex="0145"/>
  <outline>
    <contour>
      <point x="344" y="-330" type="curve"/>
      <point x="446" y="-254"/>
      <point x="489" y="-173"/>
      <point x="494" y="-92" type="curve"/>
      <point x="479" y="-50"/>
      <point x="405" y="2"/>
      <point x="322" y="-61" type="curve"/>
      <point x="337" y="-211" type="line"/>
      <point x="281" y="-293" type="line"/>
      <point x="289" y="-317"/>
      <point x="308" y="-329"/>
    </contour>
    <component base="N"/>
  </outline>
</glyph>
<glyph name="uni0218" format="1">
  <advance width="724"/>
  <unicode hex="0218"/>
  <outline>
    <contour>
      <point x="294" y="-330" type="curve"/>
      <point x="396" y="-254"/>
      <point x="439" y="-173"/>
      <point x="444" y="-92" type="curve"/>
      <point x="429" y="-50"/>
      <point x="355" y="2"/>
      <point x="272" y="-61" type="curve"/>
      <point x="287" y="-211" type="line"/>
      <point x="231" y="-293" type="line"/>
      <point x="239" y="-317"/>
      <point x="258" y="-329"/>
    </contour>
    <component base="S"/>
  </outline>
</glyph>
<glyph name="uni0219" format="1">
  <advance width="598"/>
  <unicode hex="0219"/>
  <outline>
    <contour>
      <point x="204" y="-330" type="curve"/>
      <point x="306" y="-254"/>
      <point x="349" y="-173"/>
      <point x="354" y="-92" type="curve"/>
      <point x="339" y="-50"/>
      <point x="265" y="2"/>
      <point x="182" y="-61" type="curve"/>
      <point x="197" y="-211" type="line"/>
      <point x="141" y="-293" type="line"/>
      <point x="149" y="-317"/>
      <point x="168" y="-329"/>
    </contour>
    <component base="s"/>
  </outline>
</glyph>
<glyph name="dvNNA" format="1">
  <advance width="914"/>
  <unicode hex="0923"/>
  <outline>
    <contour>
      <point x="1069" y="612" type="curve"/>
      <point x="1057" y="627" type="line"/>
      <point x="232" y="627" type="line"/>
      <point x="97" y="550"/>
      <point x="36" y="427"/>
      <point x="36" y="348" type="curve" smooth="yes"/>
      <point x="36" y="258"/>
      <point x="144" y="114"/>
      <point x="247" y="114" type="curve" smooth="yes"/>
      <point x="366" y="114"/>
      <point x="547" y="244"/>
      <point x="547" y="391" type="curve" smooth="yes"/>
      <point x="547" y="442"/>
      <point x="525" y="498"/>
      <point x="494" y="565" type="curve"/>
      <point x="1040" y="565" type="line"/>
      <point x="1057" y="577"/>
      <point x="1065" y="595"/>
    </contour>
    <contour>
      <point x="328" y="565" type="line"/>
      <point x="349" y="501"/>
      <point x="364" y="449"/>
      <point x="369" y="386" type="curve"/>
      <point x="350" y="301"/>
      <point x="315" y="264"/>
      <point x="267" y="243" type="curve"/>
      <point x="239" y="265"/>
      <point x="224" y="302"/>
      <point x="218" y="357" type="curve"/>
      <point x="236" y="433"/>
      <point x="271" y="498"/>
      <point x="314" y="565" type="curve"/>
    </contour>
    <contour>
      <point x="915" y="597" type="line"/>
      <point x="885" y="651"/>
      <point x="827" y="673"/>
      <point x="679" y="658" type="curve"/>
      <point x="550" y="64" type="line"/>
      <point x="640" y="-5"/>
      <point x="774" y="-17"/>
      <point x="813" y="25" type="curve"/>
      <point x="817" y="419" type="line"/>
    </contour>
  </outline>
</glyph>
<glyph name="dvLA" format="1">
  <advance width="871"/>
  <unicode hex="0932"/>
  <outline>
    <contour>
      <point x="873" y="597" type="line"/>
      <point x="843" y="651"/>
      <point x="785" y="673"/>
      <point x="637" y="658" type="curve"/>
      <point x="572" y="358" type="line"/>
      <point x="593" y="332" type="line"/>
      <point x="552" y="266" type="line"/>
      <point x="508" y="64" type="line"/>
      <point x="598" y="-5"/>
      <point x="732" y="-17"/>
      <point x="771" y="25" type="curve"/>
      <point x="775" y="419" type="line"/>
    </contour>
    <contour>
      <point x="998" y="565" type="line"/>
      <point x="1015" y="577"/>
      <point x="1023" y="595"/>
      <point x="1027" y="612" type="curve"/>
      <point x="1015" y="627" type="line"/>
      <point x="3" y="627" type="line"/>
      <point x="-14" y="615"/>
      <point x="-26" y="597"/>
      <point x="-34" y="584" type="curve"/>
      <point x="-14" y="565" type="line"/>
    </contour>
    <contour>
      <point x="400" y="316" type="line"/>
      <point x="423" y="336"/>
      <point x="447" y="357"/>
      <point x="470" y="377" type="curve"/>
      <point x="464" y="440"/>
      <point x="433" y="482"/>
      <point x="361" y="501" type="curve" smooth="yes"/>
      <point x="327" y="509"/>
      <point x="284" y="513"/>
      <point x="230" y="510" type="curve"/>
      <point x="105" y="460"/>
      <point x="-20" y="356"/>
      <point x="-20" y="259" type="curve" smooth="yes"/>
      <point x="-20" y="183"/>
      <point x="92" y="51"/>
      <point x="200" y="0" type="curve"/>
      <point x="324" y="23"/>
      <point x="363" y="109"/>
      <point x="330" y="158" type="curve"/>
      <point x="241" y="192"/>
      <point x="206" y="226"/>
      <point x="180" y="278" type="curve"/>
      <point x="184" y="325"/>
      <point x="239" y="392"/>
      <point x="264" y="392" type="curve" smooth="yes"/>
      <point x="294" y="392"/>
      <point x="315" y="370"/>
      <point x="322" y="347" type="curve"/>
      <point x="301" y="337"/>
      <point x="281" y="327"/>
      <point x="260" y="317" type="curve"/>
      <point x="249" y="265"/>
      <point x="297" y="206"/>
      <point x="412" y="186" type="curve"/>
      <point x="499" y="257"/>
      <point x="578" y="328"/>
      <point x="641" y="397" type="curve"/>
      <point x="594" y="458" type="line"/>
      <point x="538" y="401"/>
      <point x="471" y="347"/>
      <point x="410" y="309" type="curve"/>
    </contour>
  </outline>
</glyph>
<glyph name="dvOm" format="1">
  <advance width="1013"/>
  <unicode hex="0950"/>
  <outline>
    <contour>
      <point x="475" y="313" type="line"/>
      <point x="506" y="261" type="line"/>
      <point x="631" y="276" type="line"/>
      <point x="703" y="326"/>
      <point x="775" y="403"/>
      <point x="821" y="468" type="curve"/>
      <point x="860" y="442"/>
      <point x="883" y="399"/>
      <point x="900" y="335" type="curve"/>
      <point x="861" y="251"/>
      <point x="801" y="189"/>
      <point x="654" y="140" type="curve"/>
      <point x="616" y="84"/>
      <point x="651" y="16"/>
      <point x="748" y="0" type="curve"/>
      <point x="898" y="79"/>
      <point x="996" y="192"/>
      <point x="1021" y="341" type="curve"/>
      <point x="1010" y="453"/>
      <point x="956" y="595"/>
      <point x="827" y="611" type="curve"/>
      <point x="728" y="577"/>
      <point x="658" y="424"/>
      <point x="554" y="346" type="curve"/>
    </contour>
    <contour>
      <point x="378" y="311" type="line"/>
      <point x="413" y="286"/>
      <point x="440" y="256"/>
      <point x="449" y="218" type="curve"/>
      <point x="413" y="152"/>
      <point x="375" y="126"/>
      <point x="303" y="103" type="curve"/>
      <point x="235" y="156"/>
      <point x="180" y="227"/>
      <point x="146" y="328" type="curve"/>
      <point x="86" y="346"/>
      <point x="29" y="313"/>
      <point x="-5" y="227" type="curve"/>
      <point x="69" y="109"/>
      <point x="164" y="34"/>
      <point x="302" y="0" type="curve"/>
      <point x="467" y="15"/>
      <point x="607" y="118"/>
      <point x="606" y="218" type="curve" smooth="yes"/>
      <point x="606" y="285"/>
      <point x="536" y="331"/>
      <point x="453" y="359" type="curve"/>
    </contour>
    <contour>
      <point x="278" y="343"/>
      <point x="286" y="302"/>
      <point x="335" y="280" type="curve"/>
      <point x="470" y="309"/>
      <point x="630" y="413"/>
      <point x="640" y="535" type="curve"/>
      <point x="606" y="607"/>
      <point x="566" y="643"/>
      <point x="495" y="663" type="curve"/>
      <point x="391" y="674"/>
      <point x="316" y="658"/>
      <point x="229" y="614" type="curve"/>
      <point x="194" y="558"/>
      <point x="240" y="487"/>
      <point x="321" y="461" type="curve"/>
      <point x="366" y="502"/>
      <point x="404" y="522"/>
      <point x="463" y="527" type="curve"/>
      <point x="465" y="523"/>
      <point x="467" y="520"/>
      <point x="469" y="516" type="curve"/>
      <point x="472" y="459"/>
      <point x="419" y="388"/>
      <point x="300" y="367" type="curve"/>
    </contour>
    <contour>
      <point x="681" y="798"/>
      <point x="709" y="769"/>
      <point x="742" y="769" type="curve" smooth="yes"/>
      <point x="775" y="769"/>
      <point x="801" y="798"/>
      <point x="801" y="830" type="curve" smooth="yes"/>
      <point x="801" y="863"/>
      <point x="776" y="890"/>
      <point x="743" y="890" type="curve" smooth="yes"/>
      <point x="710" y="890"/>
      <point x="681" y="863"/>
      <point x="681" y="830" type="curve" smooth="yes"/>
    </contour>
    <contour>
      <point x="916" y="788"/>
      <point x="872" y="813"/>
      <point x="828" y="797" type="curve"/>
      <point x="801" y="752"/>
      <point x="766" y="729"/>
      <point x="707" y="714" type="curve"/>
      <point x="655" y="760"/>
      <point x="644" y="819"/>
      <point x="646" y="895" type="curve"/>
      <point x="584" y="924"/>
      <point x="522" y="898"/>
      <point x="482" y="829" type="curve"/>
      <point x="507" y="725"/>
      <point x="624" y="638"/>
      <point x="703" y="638" type="curve" smooth="yes"/>
      <point x="776" y="638"/>
      <point x="880" y="663"/>
      <point x="938" y="729" type="curve"/>
    </contour>
  </outline>
</glyph>
<glyph name="dvZero" format="1">
  <advance width="550"/>
  <unicode hex="0966"/>
  <outline>
    <contour>
      <point x="34" y="288" type="curve"/>
      <point x="34" y="204"/>
      <point x="123" y="54"/>
      <point x="232" y="54" type="curve" smooth="yes"/>
      <point x="349" y="54"/>
      <point x="535" y="195"/>
      <point x="535" y="316" type="curve" smooth="yes"/>
      <point x="535" y="443"/>
      <point x="495" y="534"/>
      <point x="426" y="615" type="curve"/>
      <point x="355" y="633"/>
      <point x="277" y="605"/>
      <point x="219" y="578" type="curve"/>
      <point x="145" y="536"/>
      <point x="34" y="387"/>
    </contour>
    <contour>
      <point x="347" y="508" type="curve"/>
      <point x="379" y="441"/>
      <point x="385" y="385"/>
      <point x="375" y="326" type="curve"/>
      <point x="354" y="247"/>
      <point x="306" y="201"/>
      <point x="252" y="171" type="curve"/>
      <point x="218" y="206"/>
      <point x="202" y="255"/>
      <point x="203" y="310" type="curve"/>
      <point x="230" y="392"/>
      <point x="260" y="448"/>
      <point x="311" y="497" type="curve"/>
      <point x="326" y="505"/>
      <point x="337" y="507"/>
    </contour>
  </outline>
</glyph>
<glyph name="dvOne" format="1">
  <advance width="542"/>
  <unicode hex="0967"/>
  <outline>
    <contour>
      <point x="447" y="181" type="curve"/>
      <point x="422" y="163"/>
      <point x="353" y="123"/>
      <point x="328" y="123" type="curve" smooth="yes"/>
      <point x="321" y="123"/>
      <point x="317" y="128"/>
      <point x="317" y="137" type="curve" smooth="yes"/>
      <point x="317" y="175"/>
      <point x="508" y="417"/>
      <point x="506" y="516" type="curve"/>
      <point x="505" y="574"/>
      <point x="419" y="664"/>
      <point x="333" y="663" type="curve"/>
      <point x="207" y="664"/>
      <point x="95" y="554"/>
      <point x="67" y="480" type="curve"/>
      <point x="72" y="427"/>
      <point x="113" y="378"/>
      <point x="207" y="342" type="curve"/>
      <point x="276" y="364"/>
      <point x="352" y="404"/>
      <point x="392" y="426" type="curve"/>
      <point x="359" y="466" type="line"/>
      <point x="315" y="447"/>
      <point x="303" y="440"/>
      <point x="265" y="431" type="curve"/>
      <point x="251" y="438"/>
      <point x="242" y="455"/>
      <point x="243" y="475" type="curve"/>
      <point x="261" y="513"/>
      <point x="305" y="543"/>
      <point x="315" y="543" type="curve" smooth="yes"/>
      <point x="324" y="543"/>
      <point x="329" y="528"/>
      <point x="329" y="510" type="curve" smooth="yes"/>
      <point x="329" y="473"/>
      <point x="302" y="428"/>
      <point x="278" y="391" type="curve"/>
      <point x="298" y="358" type="line"/>
      <point x="235" y="308" type="line"/>
      <point x="193" y="239"/>
      <point x="120" y="161"/>
      <point x="118" y="124" type="curve"/>
      <point x="118" y="63"/>
      <point x="164" y="18"/>
      <point x="290" y="0" type="curve"/>
      <point x="372" y="30"/>
      <point x="444" y="89"/>
      <point x="492" y="138" type="curve"/>
      <point x="490" y="160"/>
      <point x="478" y="181"/>
    </contour>
  </outline>
</glyph>
<glyph name="dvThree" format="1">
  <advance width="593"/>
  <unicode hex="0969"/>
  <outline>
    <contour>
      <point x="264" y="20" type="line"/>
      <point x="397" y="37"/>
      <point x="545" y="140"/>
      <point x="543" y="235" type="curve"/>
      <point x="542" y="288"/>
      <point x="506" y="339"/>
      <point x="410" y="351" type="curve"/>
      <point x="407" y="360" type="line"/>
      <point x="498" y="400"/>
      <point x="569" y="446"/>
      <point x="584" y="541" type="curve"/>
      <point x="548" y="609"/>
      <point x="511" y="642"/>
      <point x="443" y="666" type="curve"/>
      <point x="342" y="675"/>
      <point x="268" y="660"/>
      <point x="182" y="617" type="curve"/>
      <point x="146" y="560"/>
      <point x="187" y="496"/>
      <point x="268" y="470" type="curve"/>
      <point x="312" y="508"/>
      <point x="351" y="528"/>
      <point x="409" y="533" type="curve"/>
      <point x="412" y="530"/>
      <point x="415" y="527"/>
      <point x="418" y="524" type="curve"/>
      <point x="406" y="471"/>
      <point x="386" y="435"/>
      <point x="322" y="409" type="curve"/>
      <point x="283" y="410"/>
      <point x="269" y="411"/>
      <point x="231" y="412" type="curve"/>
      <point x="189" y="382"/>
      <point x="201" y="290"/>
      <point x="275" y="241" type="curve"/>
      <point x="308" y="257"/>
      <point x="326" y="263"/>
      <point x="354" y="274" type="curve"/>
      <point x="372" y="259"/>
      <point x="379" y="245"/>
      <point x="382" y="226" type="curve"/>
      <point x="371" y="189"/>
      <point x="333" y="157"/>
      <point x="266" y="124" type="curve"/>
      <point x="234" y="159"/>
      <point x="208" y="192"/>
      <point x="188" y="234" type="curve"/>
      <point x="138" y="258"/>
      <point x="75" y="225"/>
      <point x="19" y="164" type="curve"/>
      <point x="61" y="41"/>
      <point x="104" y="-86"/>
      <point x="129" y="-209" type="curve"/>
      <point x="234" y="-221"/>
      <point x="284" y="-191"/>
      <point x="295" y="-145" type="curve"/>
      <point x="270" y="-72"/>
      <point x="235" y="-10"/>
      <point x="186" y="74" type="curve"/>
      <point x="196" y="83" type="line"/>
    </contour>
  </outline>
</glyph>
<glyph name="dvFive" format="1">
  <advance width="566"/>
  <unicode hex="096B"/>
  <outline>
    <contour>
      <point x="419" y="293" type="curve"/>
      <point x="430" y="289" type="line"/>
      <point x="399" y="188"/>
      <point x="317" y="14"/>
      <point x="252" y="-109" type="curve"/>
      <point x="252" y="-149"/>
      <point x="286" y="-177"/>
      <point x="356" y="-177" type="curve"/>
      <point x="422" y="-46"/>
      <point x="529" y="189"/>
      <point x="574" y="318" type="curve"/>
      <point x="566" y="394"/>
      <point x="492" y="418"/>
      <point x="382" y="407" type="curve"/>
      <point x="352" y="359"/>
      <point x="306" y="294"/>
      <point x="238" y="213" type="curve"/>
      <point x="217" y="230"/>
      <point x="204" y="258"/>
      <point x="204" y="291" type="curve" smooth="yes"/>
      <point x="204" y="377"/>
      <point x="334" y="507"/>
      <point x="483" y="603" type="curve"/>
      <point x="476" y="640"/>
      <point x="455" y="657"/>
      <point x="410" y="663" type="curve"/>
      <point x="173" y="556"/>
      <point x="21" y="409"/>
      <point x="18" y="289" type="curve" smooth="yes"/>
      <point x="15" y="158"/>
      <point x="112" y="83"/>
      <point x="267" y="68" type="curve"/>
      <point x="331" y="170"/>
      <point x="379" y="235"/>
    </contour>
  </outline>
</glyph>
<glyph name="dvSix" format="1">
  <advance width="600"/>
  <unicode hex="096C"/>
  <outline>
    <contour>
      <point x="271" y="10" type="curve"/>
      <point x="353" y="83" type="line"/>
      <point x="360" y="74" type="line"/>
      <point x="328" y="20"/>
      <point x="283" y="-87"/>
      <point x="235" y="-145" type="curve"/>
      <point x="228" y="-188"/>
      <point x="267" y="-219"/>
      <point x="373" y="-215" type="curve"/>
      <point x="430" y="-99"/>
      <point x="471" y="29"/>
      <point x="530" y="157" type="curve"/>
      <point x="502" y="211"/>
      <point x="451" y="244"/>
      <point x="388" y="227" type="curve"/>
      <point x="357" y="175"/>
      <point x="328" y="151"/>
      <point x="280" y="114" type="curve"/>
      <point x="253" y="147"/>
      <point x="227" y="179"/>
      <point x="230" y="216" type="curve"/>
      <point x="240" y="240"/>
      <point x="242" y="252"/>
      <point x="272" y="282" type="curve"/>
      <point x="304" y="273"/>
      <point x="319" y="268"/>
      <point x="348" y="253" type="curve"/>
      <point x="419" y="306"/>
      <point x="453" y="402"/>
      <point x="402" y="416" type="curve"/>
      <point x="371" y="411"/>
      <point x="357" y="408"/>
      <point x="327" y="399" type="curve"/>
      <point x="275" y="437"/>
      <point x="260" y="478"/>
      <point x="276" y="524" type="curve"/>
      <point x="280" y="527"/>
      <point x="284" y="530"/>
      <point x="288" y="533" type="curve"/>
      <point x="344" y="528"/>
      <point x="376" y="508"/>
      <point x="405" y="470" type="curve"/>
      <point x="496" y="496"/>
      <point x="561" y="560"/>
      <point x="546" y="617" type="curve"/>
      <point x="476" y="660"/>
      <point x="408" y="675"/>
      <point x="291" y="663" type="curve"/>
      <point x="226" y="642"/>
      <point x="177" y="609"/>
      <point x="130" y="556" type="curve"/>
      <point x="102" y="443"/>
      <point x="167" y="398"/>
      <point x="238" y="360" type="curve"/>
      <point x="232" y="351" type="line"/>
      <point x="131" y="339"/>
      <point x="93" y="278"/>
      <point x="72" y="225" type="curve"/>
      <point x="35" y="130"/>
      <point x="145" y="27"/>
    </contour>
  </outline>
</glyph>
<glyph name="dvSeven" format="1">
  <advance width="726"/>
  <unicode hex="096D"/>
  <outline>
    <contour>
      <point x="640" y="366" type="line"/>
      <point x="577" y="346"/>
      <point x="525" y="332"/>
      <point x="489" y="323" type="curve"/>
      <point x="455" y="350"/>
      <point x="458" y="428"/>
      <point x="476" y="449" type="curve"/>
      <point x="486" y="452" type="line"/>
      <point x="528" y="433"/>
      <point x="553" y="396"/>
      <point x="567" y="342" type="curve"/>
      <point x="545" y="293" type="line"/>
      <point x="566" y="264" type="line"/>
      <point x="513" y="233" type="line"/>
      <point x="449" y="158"/>
      <point x="388" y="115"/>
      <point x="295" y="75" type="curve"/>
      <point x="164" y="231"/>
      <point x="246" y="465"/>
      <point x="309" y="561" type="curve"/>
      <point x="289" y="640"/>
      <point x="184" y="639"/>
      <point x="113" y="601" type="curve"/>
      <point x="1" y="413"/>
      <point x="33" y="17"/>
      <point x="280" y="-18" type="curve"/>
      <point x="478" y="-18"/>
      <point x="685" y="183"/>
      <point x="720" y="358" type="curve"/>
      <point x="720" y="444"/>
      <point x="656" y="524"/>
      <point x="557" y="559" type="curve"/>
      <point x="455" y="558"/>
      <point x="368" y="514"/>
      <point x="326" y="458" type="curve"/>
      <point x="287" y="382"/>
      <point x="296" y="294"/>
      <point x="448" y="227" type="curve"/>
      <point x="533" y="259"/>
      <point x="623" y="311"/>
      <point x="654" y="331" type="curve"/>
    </contour>
  </outline>
</glyph>
<glyph name="dvEight" format="1">
  <advance width="568"/>
  <unicode hex="096E"/>
  <outline>
    <contour>
      <point x="516" y="293" type="curve"/>
      <point x="468" y="229"/>
      <point x="396" y="153"/>
      <point x="319" y="115" type="curve"/>
      <point x="250" y="132"/>
      <point x="212" y="183"/>
      <point x="205" y="244" type="curve"/>
      <point x="281" y="379"/>
      <point x="398" y="500"/>
      <point x="517" y="598" type="curve"/>
      <point x="510" y="643"/>
      <point x="496" y="665"/>
      <point x="440" y="656" type="curve"/>
      <point x="343" y="586"/>
      <point x="116" y="404"/>
      <point x="19" y="259" type="curve"/>
      <point x="25" y="141"/>
      <point x="149" y="0"/>
      <point x="291" y="0" type="curve" smooth="yes"/>
      <point x="390" y="0"/>
      <point x="542" y="174"/>
      <point x="587" y="247" type="curve"/>
      <point x="580" y="279"/>
      <point x="570" y="292"/>
    </contour>
  </outline>
</glyph>
<glyph name="dvCH_NA" format="1">
  <advance width="1678"/>
  <outline>
    <contour>
      <point x="978" y="565" type="line"/>
      <point x="995" y="577"/>
      <point x="1003" y="595"/>
      <point x="1007" y="612" type="curve"/>
      <point x="995" y="627" type="line"/>
      <point x="5" y="627" type="line"/>
      <point x="-13" y="615"/>
      <point x="-26" y="597"/>
      <point x="-34" y="584" type="curve"/>
      <point x="-13" y="565" type="line"/>
    </contour>
    <contour>
      <point x="756" y="60" type="curve"/>
      <point x="775" y="180"/>
      <point x="593" y="284"/>
      <point x="599" y="388" type="curve"/>
      <point x="604" y="397"/>
      <point x="611" y="403"/>
      <point x="619" y="405" type="curve"/>
      <point x="635" y="402"/>
      <point x="670" y="383"/>
      <point x="684" y="358" type="curve"/>
      <point x="637" y="271"/>
      <point x="463" y="166"/>
      <point x="306" y="145" type="curve"/>
      <point x="297" y="154" type="line"/>
      <point x="337" y="201"/>
      <point x="382" y="247"/>
      <point x="428" y="276" type="curve"/>
      <point x="452" y="345"/>
      <point x="408" y="406"/>
      <point x="321" y="448" type="curve"/>
      <point x="297" y="440"/>
      <point x="254" y="423"/>
      <point x="225" y="417" type="curve"/>
      <point x="218" y="427" type="line"/>
      <point x="269" y="471"/>
      <point x="364" y="535"/>
      <point x="458" y="565" type="curve"/>
      <point x="403" y="618" type="line"/>
      <point x="252" y="595"/>
      <point x="124" y="548"/>
      <point x="33" y="479" type="curve"/>
      <point x="2" y="411"/>
      <point x="64" y="334"/>
      <point x="143" y="298" type="curve"/>
      <point x="187" y="312"/>
      <point x="233" y="327"/>
      <point x="265" y="340" type="curve"/>
      <point x="272" y="328" type="line"/>
      <point x="196" y="285"/>
      <point x="96" y="222"/>
      <point x="96" y="168" type="curve" smooth="yes"/>
      <point x="96" y="85"/>
      <point x="178" y="27"/>
      <point x="272" y="4" type="curve"/>
      <point x="478" y="24"/>
      <point x="818" y="266"/>
      <point x="818" y="363" type="curve" smooth="yes"/>
      <point x="818" y="435"/>
      <point x="698" y="516"/>
      <point x="619" y="536" type="curve"/>
      <point x="562" y="531"/>
      <point x="497" y="486"/>
      <point x="461" y="433" type="curve"/>
      <point x="425" y="289"/>
      <point x="604" y="149"/>
      <point x="607" y="94" type="curve"/>
      <point x="572" y="38"/>
      <point x="468" y="-5"/>
      <point x="389" y="-37" type="curve"/>
      <point x="356" y="-95"/>
      <point x="384" y="-159"/>
      <point x="493" y="-208" type="curve"/>
      <point x="618" y="-137"/>
      <point x="740" y="-48"/>
    </contour>
    <contour>
      <point x="1806" y="565" type="line"/>
      <point x="1823" y="577"/>
      <point x="1831" y="595"/>
      <point x="1835" y="612" type="curve"/>
      <point x="1823" y="627" type="line"/>
      <point x="872" y="627" type="line"/>
      <point x="855" y="615"/>
      <point x="843" y="597"/>
      <point x="835" y="584" type="curve"/>
      <point x="855" y="565" type="line"/>
    </contour>
    <contour>
      <point x="1649" y="453" type="line"/>
      <point x="1619" y="507"/>
      <point x="1561" y="529"/>
      <point x="1413" y="514" type="curve"/>
      <point x="1379" y="421" type="line"/>
      <point x="1390" y="414" type="line"/>
      <point x="1311" y="64" type="line"/>
      <point x="1401" y="-5"/>
      <point x="1535" y="-17"/>
      <point x="1574" y="25" type="curve"/>
      <point x="1562" y="337" type="line"/>
    </contour>
    <contour>
      <point x="1063" y="329" type="line"/>
      <point x="1092" y="284"/>
      <point x="1102" y="229"/>
      <point x="1087" y="183" type="curve"/>
      <point x="1075" y="177" type="line"/>
      <point x="1031" y="202"/>
      <point x="1016" y="225"/>
      <point x="997" y="269" type="curve"/>
      <point x="981" y="246" type="line"/>
      <point x="1100" y="304"/>
      <point x="1284" y="374"/>
      <point x="1437" y="448" type="curve"/>
      <point x="1413" y="514" type="line"/>
      <point x="1283" y="450"/>
      <point x="1060" y="359"/>
      <point x="935" y="324" type="curve"/>
      <point x="897" y="300"/>
      <point x="879" y="247"/>
      <point x="890" y="181" type="curve"/>
      <point x="930" y="127"/>
      <point x="997" y="92"/>
      <point x="1081" y="72" type="curve"/>
      <point x="1145" y="69"/>
      <point x="1236" y="99"/>
      <point x="1254" y="145" type="curve"/>
      <point x="1278" y="216"/>
      <point x="1283" y="312"/>
      <point x="1256" y="392" type="curve"/>
    </contour>
  </outline>
</glyph>
<glyph name="dvCH_R_YA" format="1">
  <advance width="1604"/>
  <outline>
    <contour>
      <point x="415" y="-257" type="curve"/>
      <point x="362" y="-204"/>
      <point x="345" y="-157"/>
      <point x="329" y="-65" type="curve"/>
      <point x="282" y="-24"/>
      <point x="256" y="-14"/>
      <point x="181" y="-20" type="curve"/>
      <point x="111" y="-63"/>
      <point x="23" y="-152"/>
      <point x="-38" y="-254" type="curve"/>
      <point x="-35" y="-298"/>
      <point x="3" y="-340"/>
      <point x="96" y="-330" type="curve"/>
      <point x="133" y="-233"/>
      <point x="164" y="-179"/>
      <point x="224" y="-121" type="curve"/>
      <point x="232" y="-125" type="line"/>
      <point x="237" y="-200"/>
      <point x="271" y="-274"/>
      <point x="330" y="-333" type="curve"/>
      <point x="388" y="-326"/>
      <point x="415" y="-303"/>
    </contour>
    <contour>
      <point x="1607" y="597" type="line"/>
      <point x="1577" y="651"/>
      <point x="1519" y="673"/>
      <point x="1371" y="658" type="curve"/>
      <point x="1285" y="262" type="line"/>
      <point x="1313" y="231" type="line"/>
      <point x="1266" y="171" type="line"/>
      <point x="1242" y="64" type="line"/>
      <point x="1332" y="-5"/>
      <point x="1466" y="-17"/>
      <point x="1505" y="25" type="curve"/>
      <point x="1509" y="419" type="line"/>
    </contour>
    <contour>
      <point x="1732" y="565" type="line"/>
      <point x="1749" y="577"/>
      <point x="1757" y="595"/>
      <point x="1761" y="612" type="curve"/>
      <point x="1749" y="627" type="line"/>
      <point x="773" y="627" type="line"/>
      <point x="755" y="615"/>
      <point x="742" y="597"/>
      <point x="734" y="584" type="curve"/>
      <point x="755" y="565" type="line"/>
    </contour>
    <contour>
      <point x="861" y="578" type="curve"/>
      <point x="829" y="524"/>
      <point x="876" y="464"/>
      <point x="972" y="440" type="curve"/>
      <point x="991" y="450"/>
      <point x="1013" y="459"/>
      <point x="1035" y="465" type="curve" smooth="yes"/>
      <point x="1056" y="470"/>
      <point x="1078" y="471"/>
      <point x="1099" y="466" type="curve"/>
      <point x="1079" y="344"/>
      <point x="807" y="317"/>
      <point x="807" y="250" type="curve" smooth="yes"/>
      <point x="807" y="170"/>
      <point x="947" y="81"/>
      <point x="1027" y="81" type="curve" smooth="yes"/>
      <point x="1093" y="81"/>
      <point x="1302" y="220"/>
      <point x="1362" y="318" type="curve"/>
      <point x="1308" y="365" type="line"/>
      <point x="1248" y="298"/>
      <point x="1199" y="267"/>
      <point x="1118" y="225" type="curve"/>
      <point x="1094" y="227"/>
      <point x="1053" y="250"/>
      <point x="1062" y="284" type="curve"/>
      <point x="1158" y="338"/>
      <point x="1269" y="425"/>
      <point x="1269" y="500" type="curve" smooth="yes"/>
      <point x="1269" y="551"/>
      <point x="1185" y="627"/>
      <point x="1066" y="627" type="curve" smooth="yes"/>
      <point x="1008" y="627"/>
      <point x="917" y="615"/>
    </contour>
    <contour>
      <point x="978" y="565" type="line"/>
      <point x="995" y="577"/>
      <point x="1003" y="595"/>
      <point x="1007" y="612" type="curve"/>
      <point x="995" y="627" type="line"/>
      <point x="5" y="627" type="line"/>
      <point x="-13" y="615"/>
      <point x="-26" y="597"/>
      <point x="-34" y="584" type="curve"/>
      <point x="-13" y="565" type="line"/>
    </contour>
    <contour>
      <point x="756" y="60" type="curve"/>
      <point x="775" y="180"/>
      <point x="593" y="284"/>
      <point x="599" y="388" type="curve"/>
      <point x="604" y="397"/>
      <point x="611" y="403"/>
      <point x="619" y="405" type="curve"/>
      <point x="635" y="402"/>
      <point x="670" y="383"/>
      <point x="684" y="358" type="curve"/>
      <point x="637" y="271"/>
      <point x="463" y="166"/>
      <point x="306" y="145" type="curve"/>
      <point x="297" y="154" type="line"/>
      <point x="337" y="201"/>
      <point x="382" y="247"/>
      <point x="428" y="276" type="curve"/>
      <point x="452" y="345"/>
      <point x="408" y="406"/>
      <point x="321" y="448" type="curve"/>
      <point x="297" y="440"/>
      <point x="254" y="423"/>
      <point x="225" y="417" type="curve"/>
      <point x="218" y="427" type="line"/>
      <point x="269" y="471"/>
      <point x="364" y="535"/>
      <point x="458" y="565" type="curve"/>
      <point x="403" y="618" type="line"/>
      <point x="252" y="595"/>
      <point x="124" y="548"/>
      <point x="33" y="479" type="curve"/>
      <point x="2" y="411"/>
      <point x="64" y="334"/>
      <point x="143" y="298" type="curve"/>
      <point x="187" y="312"/>
      <point x="233" y="327"/>
      <point x="265" y="340" type="curve"/>
      <point x="272" y="328" type="line"/>
      <point x="196" y="285"/>
      <point x="96" y="222"/>
      <point x="96" y="168" type="curve" smooth="yes"/>
      <point x="96" y="85"/>
      <point x="178" y="27"/>
      <point x="272" y="4" type="curve"/>
      <point x="478" y="24"/>
      <point x="818" y="266"/>
      <point x="818" y="363" type="curve" smooth="yes"/>
      <point x="818" y="435"/>
      <point x="698" y="516"/>
      <point x="619" y="536" type="curve"/>
      <point x="562" y="531"/>
      <point x="497" y="486"/>
      <point x="461" y="433" type="curve"/>
      <point x="425" y="289"/>
      <point x="604" y="149"/>
      <point x="607" y="94" type="curve"/>
      <point x="572" y="38"/>
      <point x="468" y="-5"/>
      <point x="389" y="-37" type="curve"/>
      <point x="356" y="-95"/>
      <point x="384" y="-159"/>
      <point x="493" y="-208" type="curve"/>
      <point x="618" y="-137"/>
      <point x="740" y="-48"/>
    </contour>
  </outline>
</glyph>
<glyph name="dvDD_NA" format="1">
  <advance width="600"/>
  <outline>
    <contour>
      <point x="736" y="565" type="line"/>
      <point x="753" y="577"/>
      <point x="761" y="595"/>
      <point x="765" y="612" type="curve"/>
      <point x="753" y="627" type="line"/>
      <point x="3" y="627" type="line"/>
      <point x="-14" y="615"/>
      <point x="-26" y="597"/>
      <point x="-34" y="584" type="curve"/>
      <point x="-14" y="565" type="line"/>
    </contour>
    <contour>
      <point x="350" y="605" type="curve"/>
      <point x="298" y="567" type="line"/>
      <point x="346" y="555"/>
      <point x="392" y="539"/>
      <point x="419" y="521" type="curve"/>
      <point x="415" y="514" type="line"/>
      <point x="343" y="496"/>
      <point x="287" y="494"/>
      <point x="207" y="492" type="curve"/>
      <point x="118" y="442"/>
      <point x="85" y="356"/>
      <point x="129" y="303" type="curve"/>
      <point x="222" y="285"/>
      <point x="302" y="277"/>
      <point x="387" y="261" type="curve"/>
      <point x="390" y="254" type="line"/>
      <point x="319" y="227"/>
      <point x="185" y="223"/>
      <point x="86" y="232" type="curve"/>
      <point x="41" y="198"/>
      <point x="51" y="124"/>
      <point x="126" y="71" type="curve"/>
      <point x="278" y="71"/>
      <point x="448" y="105"/>
      <point x="516" y="142" type="curve"/>
      <point x="570" y="232"/>
      <point x="565" y="289"/>
      <point x="511" y="318" type="curve"/>
      <point x="436" y="327"/>
      <point x="342" y="339"/>
      <point x="276" y="351" type="curve"/>
      <point x="278" y="360" type="line"/>
      <point x="354" y="363"/>
      <point x="426" y="375"/>
      <point x="481" y="390" type="curve"/>
      <point x="529" y="428"/>
      <point x="555" y="502"/>
      <point x="532" y="546" type="curve"/>
      <point x="479" y="581"/>
      <point x="427" y="593"/>
    </contour>
    <contour>
      <point x="361" y="177" type="line"/>
      <point x="323" y="1" type="line"/>
      <point x="348" y="-40" type="line"/>
      <point x="306" y="-72" type="line"/>
      <point x="249" y="-282" type="line"/>
      <point x="322" y="-338"/>
      <point x="427" y="-349"/>
      <point x="460" y="-313" type="curve"/>
      <point x="448" y="-36" type="line"/>
      <point x="526" y="168" type="line"/>
    </contour>
    <contour>
      <point x="110" y="-78" type="line"/>
      <point x="130" y="-110"/>
      <point x="138" y="-152"/>
      <point x="131" y="-186" type="curve"/>
      <point x="123" y="-191" type="line"/>
      <point x="88" y="-180"/>
      <point x="69" y="-155"/>
      <point x="51" y="-121" type="curve"/>
      <point x="42" y="-139" type="line"/>
      <point x="167" y="-86"/>
      <point x="292" y="-48"/>
      <point x="406" y="2" type="curve"/>
      <point x="380" y="66" type="line"/>
      <point x="284" y="25"/>
      <point x="175" y="-21"/>
      <point x="8" y="-58" type="curve"/>
      <point x="-20" y="-81"/>
      <point x="-41" y="-116"/>
      <point x="-45" y="-154" type="curve"/>
      <point x="-17" y="-220"/>
      <point x="25" y="-245"/>
      <point x="96" y="-262" type="curve"/>
      <point x="183" y="-251"/>
      <point x="208" y="-232"/>
      <point x="230" y="-198" type="curve"/>
      <point x="248" y="-139"/>
      <point x="245" y="-76"/>
      <point x="217" y="-29" type="curve"/>
    </contour>
    <contour>
      <point x="322" y="-293" type="move" name="blwm"/>
    </contour>
    <contour>
      <point x="255" y="628" type="move" name="abvm_Ekaar"/>
    </contour>
  </outline>
</glyph>
<glyph name="dvEyelash_HA" format="1">
  <advance width="829"/>
  <outline>
    <contour>
      <point x="473" y="565" type="line"/>
      <point x="490" y="577"/>
      <point x="498" y="595"/>
      <point x="502" y="612" type="curve"/>
      <point x="490" y="627" type="line"/>
      <point x="8" y="627" type="line"/>
      <point x="-10" y="615"/>
      <point x="-23" y="597"/>
      <point x="-31" y="584" type="curve"/>
      <point x="-10" y="565" type="line"/>
    </contour>
    <contour>
      <point x="69" y="172"/>
      <point x="118" y="149"/>
      <point x="157" y="134" type="curve"/>
      <point x="254" y="145"/>
      <point x="342" y="163"/>
      <point x="433" y="199" type="curve"/>
      <point x="388" y="259" type="line"/>
      <point x="333" y="243"/>
      <point x="275" y="230"/>
      <point x="220" y="223" type="curve"/>
      <point x="205" y="258"/>
      <point x="187" y="293"/>
      <point x="174" y="333" type="curve"/>
      <point x="81" y="339"/>
      <point x="43" y="284"/>
      <point x="34" y="220" type="curve"/>
    </contour>
    <component base="dvHA" xOffset="230"/>
  </outline>
</glyph>
<glyph name="dvK_SS_M_YA" format="1">
  <advance width="2435"/>
  <outline>
    <contour>
      <point x="193" y="227" type="curve"/>
      <point x="334" y="284"/>
      <point x="572" y="442"/>
      <point x="572" y="564" type="curve" smooth="yes"/>
      <point x="572" y="655"/>
      <point x="453" y="761"/>
      <point x="372" y="761" type="curve" smooth="yes"/>
      <point x="300" y="761"/>
      <point x="133" y="661"/>
      <point x="141" y="563" type="curve" smooth="yes"/>
      <point x="151" y="433"/>
      <point x="320" y="295"/>
      <point x="421" y="248" type="curve"/>
      <point x="484" y="242"/>
      <point x="593" y="256"/>
      <point x="662" y="284" type="curve"/>
      <point x="616" y="358" type="line"/>
      <point x="577" y="338"/>
      <point x="515" y="328"/>
      <point x="458" y="324" type="curve"/>
      <point x="369" y="377"/>
      <point x="319" y="435"/>
      <point x="286" y="544" type="curve"/>
      <point x="294" y="588"/>
      <point x="335" y="634"/>
      <point x="368" y="639" type="curve"/>
      <point x="399" y="625"/>
      <point x="415" y="582"/>
      <point x="418" y="551" type="curve"/>
      <point x="378" y="435"/>
      <point x="203" y="357"/>
      <point x="69" y="323" type="curve"/>
      <point x="17" y="277"/>
      <point x="2" y="195"/>
      <point x="70" y="87" type="curve"/>
      <point x="123" y="51"/>
      <point x="180" y="24"/>
      <point x="261" y="12" type="curve"/>
      <point x="324" y="70" type="line"/>
      <point x="333" y="62" type="line"/>
      <point x="293" y="0"/>
      <point x="276" y="-58"/>
      <point x="256" y="-128" type="curve"/>
      <point x="271" y="-174"/>
      <point x="364" y="-220"/>
      <point x="448" y="-193" type="curve"/>
      <point x="461" y="-86"/>
      <point x="484" y="37"/>
      <point x="518" y="141" type="curve"/>
      <point x="481" y="200"/>
      <point x="414" y="232"/>
      <point x="350" y="219" type="curve"/>
      <point x="330" y="185"/>
      <point x="314" y="168"/>
      <point x="281" y="142" type="curve"/>
      <point x="242" y="159"/>
      <point x="211" y="176"/>
      <point x="187" y="206" type="curve"/>
      <point x="189" y="213"/>
      <point x="191" y="220"/>
    </contour>
    <contour>
      <point x="848" y="313" type="line"/>
      <point x="906" y="273"/>
      <point x="966" y="241"/>
      <point x="1042" y="213" type="curve"/>
      <point x="1102" y="213"/>
      <point x="1207" y="228"/>
      <point x="1242" y="238" type="curve"/>
      <point x="1220" y="311" type="line"/>
      <point x="1166" y="298"/>
      <point x="1112" y="293"/>
      <point x="1059" y="289" type="curve"/>
      <point x="1013" y="306"/>
      <point x="940" y="347"/>
      <point x="911" y="372" type="curve"/>
    </contour>
    <contour>
      <point x="1384" y="565" type="line"/>
      <point x="1401" y="577"/>
      <point x="1409" y="595"/>
      <point x="1413" y="612" type="curve"/>
      <point x="1401" y="627" type="line"/>
      <point x="532" y="627" type="line"/>
      <point x="515" y="615"/>
      <point x="503" y="597"/>
      <point x="495" y="584" type="curve"/>
      <point x="515" y="565" type="line"/>
    </contour>
    <contour>
      <point x="1109" y="500" type="curve"/>
      <point x="1109" y="549"/>
      <point x="973" y="627"/>
      <point x="876" y="627" type="curve" smooth="yes"/>
      <point x="818" y="627"/>
      <point x="727" y="615"/>
      <point x="655" y="572" type="curve"/>
      <point x="626" y="523"/>
      <point x="672" y="461"/>
      <point x="759" y="433" type="curve"/>
      <point x="809" y="464"/>
      <point x="867" y="486"/>
      <point x="910" y="486" type="curve" smooth="yes"/>
      <point x="924" y="486"/>
      <point x="937" y="484"/>
      <point x="947" y="478" type="curve"/>
      <point x="937" y="420"/>
      <point x="840" y="348"/>
      <point x="717" y="323" type="curve"/>
      <point x="703" y="340"/>
      <point x="690" y="356"/>
      <point x="676" y="373" type="curve"/>
      <point x="605" y="374"/>
      <point x="549" y="316"/>
      <point x="545" y="235" type="curve"/>
      <point x="610" y="132"/>
      <point x="777" y="20"/>
      <point x="928" y="-3" type="curve"/>
      <point x="1020" y="37"/>
      <point x="1067" y="149"/>
      <point x="1010" y="201" type="curve"/>
      <point x="908" y="206"/>
      <point x="842" y="218"/>
      <point x="755" y="260" type="curve"/>
      <point x="758" y="268" type="line"/>
      <point x="913" y="268"/>
      <point x="1109" y="377"/>
    </contour>
    <contour>
      <point x="1829" y="565" type="line"/>
      <point x="1846" y="577"/>
      <point x="1854" y="595"/>
      <point x="1858" y="612" type="curve"/>
      <point x="1846" y="627" type="line"/>
      <point x="1100" y="627" type="line"/>
      <point x="1083" y="615"/>
      <point x="1071" y="597"/>
      <point x="1063" y="584" type="curve"/>
      <point x="1083" y="565" type="line"/>
    </contour>
    <contour>
      <point x="1325" y="150" type="line"/>
      <point x="1289" y="167"/>
      <point x="1256" y="194"/>
      <point x="1237" y="235" type="curve"/>
      <point x="1212" y="212" type="line"/>
      <point x="1393" y="306"/>
      <point x="1516" y="281"/>
      <point x="1694" y="255" type="curve"/>
      <point x="1731" y="307" type="line"/>
      <point x="1575" y="368"/>
      <point x="1285" y="354"/>
      <point x="1166" y="290" type="curve"/>
      <point x="1123" y="267"/>
      <point x="1112" y="225"/>
      <point x="1112" y="167" type="curve"/>
      <point x="1143" y="112"/>
      <point x="1208" y="57"/>
      <point x="1271" y="38" type="curve"/>
      <point x="1343" y="28"/>
      <point x="1449" y="49"/>
      <point x="1493" y="103" type="curve"/>
      <point x="1549" y="210"/>
      <point x="1574" y="467"/>
      <point x="1568" y="612" type="curve"/>
      <point x="1336" y="583" type="line"/>
      <point x="1379" y="475" type="line"/>
      <point x="1386" y="375"/>
      <point x="1371" y="231"/>
      <point x="1337" y="156" type="curve"/>
    </contour>
    <contour>
      <point x="2438" y="597" type="line"/>
      <point x="2408" y="651"/>
      <point x="2350" y="673"/>
      <point x="2202" y="658" type="curve"/>
      <point x="2116" y="262" type="line"/>
      <point x="2144" y="231" type="line"/>
      <point x="2097" y="171" type="line"/>
      <point x="2073" y="64" type="line"/>
      <point x="2163" y="-5"/>
      <point x="2297" y="-17"/>
      <point x="2336" y="25" type="curve"/>
      <point x="2340" y="419" type="line"/>
    </contour>
    <contour>
      <point x="2563" y="565" type="line"/>
      <point x="2580" y="577"/>
      <point x="2588" y="595"/>
      <point x="2592" y="612" type="curve"/>
      <point x="2580" y="627" type="line"/>
      <point x="1604" y="627" type="line"/>
      <point x="1586" y="615"/>
      <point x="1573" y="597"/>
      <point x="1565" y="584" type="curve"/>
      <point x="1586" y="565" type="line"/>
    </contour>
    <contour>
      <point x="1692" y="578" type="curve"/>
      <point x="1660" y="524"/>
      <point x="1707" y="464"/>
      <point x="1803" y="440" type="curve"/>
      <point x="1822" y="450"/>
      <point x="1844" y="459"/>
      <point x="1866" y="465" type="curve" smooth="yes"/>
      <point x="1887" y="470"/>
      <point x="1909" y="471"/>
      <point x="1930" y="466" type="curve"/>
      <point x="1910" y="344"/>
      <point x="1638" y="317"/>
      <point x="1638" y="250" type="curve" smooth="yes"/>
      <point x="1638" y="170"/>
      <point x="1778" y="81"/>
      <point x="1858" y="81" type="curve" smooth="yes"/>
      <point x="1924" y="81"/>
      <point x="2133" y="220"/>
      <point x="2193" y="318" type="curve"/>
      <point x="2139" y="365" type="line"/>
      <point x="2079" y="298"/>
      <point x="2030" y="267"/>
      <point x="1949" y="225" type="curve"/>
      <point x="1925" y="227"/>
      <point x="1884" y="250"/>
      <point x="1893" y="284" type="curve"/>
      <point x="1989" y="338"/>
      <point x="2100" y="425"/>
      <point x="2100" y="500" type="curve" smooth="yes"/>
      <point x="2100" y="551"/>
      <point x="2016" y="627"/>
      <point x="1897" y="627" type="curve" smooth="yes"/>
      <point x="1839" y="627"/>
      <point x="1748" y="615"/>
    </contour>
  </outline>
</glyph>
<glyph name="dvLL_YA" format="1">
  <advance width="1768"/>
  <outline>
    <contour>
      <point x="1060" y="565" type="line"/>
      <point x="1077" y="577"/>
      <point x="1085" y="595"/>
      <point x="1089" y="612" type="curve"/>
      <point x="1077" y="627" type="line"/>
      <point x="3" y="627" type="line"/>
      <point x="-14" y="615"/>
      <point x="-26" y="597"/>
      <point x="-34" y="584" type="curve"/>
      <point x="-14" y="565" type="line"/>
    </contour>
    <contour>
      <point x="435" y="179" type="line"/>
      <point x="475" y="112"/>
      <point x="530" y="41"/>
      <point x="608" y="0" type="curve"/>
      <point x="700" y="1"/>
      <point x="881" y="145"/>
      <point x="885" y="239" type="curve" smooth="yes"/>
      <point x="892" y="363"/>
      <point x="741" y="460"/>
      <point x="710" y="460" type="curve" smooth="yes"/>
      <point x="544" y="460"/>
      <point x="432" y="190"/>
      <point x="224" y="116" type="curve"/>
      <point x="200" y="139"/>
      <point x="191" y="168"/>
      <point x="197" y="197" type="curve" smooth="yes"/>
      <point x="205" y="231"/>
      <point x="235" y="266"/>
      <point x="289" y="294" type="curve"/>
      <point x="324" y="262"/>
      <point x="356" y="227"/>
      <point x="414" y="169" type="curve"/>
      <point x="459" y="208" type="line"/>
      <point x="406" y="282"/>
      <point x="350" y="355"/>
      <point x="310" y="414" type="curve"/>
      <point x="171" y="418"/>
      <point x="34" y="297"/>
      <point x="29" y="204" type="curve" smooth="yes"/>
      <point x="23" y="101"/>
      <point x="136" y="0"/>
      <point x="246" y="0" type="curve" smooth="yes"/>
      <point x="415" y="0"/>
      <point x="592" y="229"/>
      <point x="691" y="310" type="curve"/>
      <point x="717" y="293"/>
      <point x="725" y="264"/>
      <point x="717" y="233" type="curve" smooth="yes"/>
      <point x="707" y="187"/>
      <point x="668" y="138"/>
      <point x="617" y="115" type="curve"/>
      <point x="579" y="116"/>
      <point x="523" y="176"/>
      <point x="486" y="224" type="curve"/>
    </contour>
    <contour>
      <point x="1771" y="597" type="line"/>
      <point x="1741" y="651"/>
      <point x="1683" y="673"/>
      <point x="1535" y="658" type="curve"/>
      <point x="1449" y="262" type="line"/>
      <point x="1477" y="231" type="line"/>
      <point x="1430" y="171" type="line"/>
      <point x="1406" y="64" type="line"/>
      <point x="1496" y="-5"/>
      <point x="1630" y="-17"/>
      <point x="1669" y="25" type="curve"/>
      <point x="1673" y="419" type="line"/>
    </contour>
    <contour>
      <point x="1896" y="565" type="line"/>
      <point x="1913" y="577"/>
      <point x="1921" y="595"/>
      <point x="1925" y="612" type="curve"/>
      <point x="1913" y="627" type="line"/>
      <point x="937" y="627" type="line"/>
      <point x="919" y="615"/>
      <point x="906" y="597"/>
      <point x="898" y="584" type="curve"/>
      <point x="919" y="565" type="line"/>
    </contour>
    <contour>
      <point x="1025" y="578" type="curve"/>
      <point x="993" y="524"/>
      <point x="1040" y="464"/>
      <point x="1136" y="440" type="curve"/>
      <point x="1155" y="450"/>
      <point x="1177" y="459"/>
      <point x="1199" y="465" type="curve" smooth="yes"/>
      <point x="1220" y="470"/>
      <point x="1242" y="471"/>
      <point x="1263" y="466" type="curve"/>
      <point x="1243" y="344"/>
      <point x="971" y="317"/>
      <point x="971" y="250" type="curve" smooth="yes"/>
      <point x="971" y="170"/>
      <point x="1111" y="81"/>
      <point x="1191" y="81" type="curve" smooth="yes"/>
      <point x="1257" y="81"/>
      <point x="1466" y="220"/>
      <point x="1526" y="318" type="curve"/>
      <point x="1472" y="365" type="line"/>
      <point x="1412" y="298"/>
      <point x="1363" y="267"/>
      <point x="1282" y="225" type="curve"/>
      <point x="1258" y="227"/>
      <point x="1217" y="250"/>
      <point x="1226" y="284" type="curve"/>
      <point x="1322" y="338"/>
      <point x="1433" y="425"/>
      <point x="1433" y="500" type="curve" smooth="yes"/>
      <point x="1433" y="551"/>
      <point x="1349" y="627"/>
      <point x="1230" y="627" type="curve" smooth="yes"/>
      <point x="1172" y="627"/>
      <point x="1081" y="615"/>
    </contour>
  </outline>
</glyph>
<glyph name="dvL_DA" format="1">
  <advance width="1117"/>
  <outline>
    <contour>
      <point x="693" y="565" type="line"/>
      <point x="710" y="577"/>
      <point x="718" y="595"/>
      <point x="722" y="612" type="curve"/>
      <point x="710" y="627" type="line"/>
      <point x="3" y="627" type="line"/>
      <point x="-14" y="615"/>
      <point x="-26" y="597"/>
      <point x="-34" y="584" type="curve"/>
      <point x="-14" y="565" type="line"/>
    </contour>
    <contour>
      <point x="601" y="380" type="line"/>
      <point x="540" y="353"/>
      <point x="497" y="337"/>
      <point x="410" y="309" type="curve"/>
      <point x="400" y="316" type="line"/>
      <point x="423" y="336"/>
      <point x="447" y="357"/>
      <point x="470" y="377" type="curve"/>
      <point x="464" y="440"/>
      <point x="433" y="482"/>
      <point x="361" y="501" type="curve" smooth="yes"/>
      <point x="327" y="509"/>
      <point x="284" y="513"/>
      <point x="230" y="510" type="curve"/>
      <point x="105" y="460"/>
      <point x="-20" y="356"/>
      <point x="-20" y="259" type="curve" smooth="yes"/>
      <point x="-20" y="183"/>
      <point x="92" y="51"/>
      <point x="200" y="0" type="curve"/>
      <point x="324" y="23"/>
      <point x="363" y="109"/>
      <point x="330" y="158" type="curve"/>
      <point x="241" y="192"/>
      <point x="206" y="226"/>
      <point x="180" y="278" type="curve"/>
      <point x="184" y="325"/>
      <point x="239" y="392"/>
      <point x="264" y="392" type="curve" smooth="yes"/>
      <point x="294" y="392"/>
      <point x="315" y="370"/>
      <point x="322" y="347" type="curve"/>
      <point x="301" y="337"/>
      <point x="281" y="327"/>
      <point x="260" y="317" type="curve"/>
      <point x="249" y="265"/>
      <point x="299" y="206"/>
      <point x="414" y="186" type="curve"/>
      <point x="504" y="225"/>
      <point x="576" y="258"/>
      <point x="648" y="319" type="curve"/>
    </contour>
    <contour>
      <point x="1244" y="565" type="line"/>
      <point x="1261" y="577"/>
      <point x="1269" y="595"/>
      <point x="1273" y="612" type="curve"/>
      <point x="1261" y="627" type="line"/>
      <point x="486" y="627" type="line"/>
      <point x="469" y="615"/>
      <point x="457" y="597"/>
      <point x="449" y="584" type="curve"/>
      <point x="469" y="565" type="line"/>
    </contour>
    <contour>
      <point x="793" y="618" type="curve"/>
      <point x="744" y="580" type="line"/>
      <point x="794" y="561"/>
      <point x="839" y="527"/>
      <point x="862" y="505" type="curve"/>
      <point x="857" y="495" type="line"/>
      <point x="725" y="380"/>
      <point x="493" y="409"/>
      <point x="493" y="252" type="curve" smooth="yes"/>
      <point x="493" y="133"/>
      <point x="614" y="32"/>
      <point x="791" y="19" type="curve"/>
      <point x="832" y="70"/>
      <point x="853" y="106"/>
      <point x="893" y="145" type="curve"/>
      <point x="907" y="136" type="line"/>
      <point x="864" y="73"/>
      <point x="826" y="-8"/>
      <point x="785" y="-105" type="curve"/>
      <point x="795" y="-161"/>
      <point x="873" y="-204"/>
      <point x="984" y="-197" type="curve"/>
      <point x="1009" y="-64"/>
      <point x="1041" y="58"/>
      <point x="1086" y="179" type="curve"/>
      <point x="1041" y="266"/>
      <point x="947" y="289"/>
      <point x="893" y="266" type="curve"/>
      <point x="847" y="223"/>
      <point x="812" y="186"/>
      <point x="748" y="124" type="curve"/>
      <point x="804" y="145" type="line"/>
      <point x="754" y="148"/>
      <point x="697" y="201"/>
      <point x="697" y="250" type="curve"/>
      <point x="792" y="287"/>
      <point x="879" y="334"/>
      <point x="931" y="366" type="curve"/>
      <point x="984" y="408"/>
      <point x="1013" y="480"/>
      <point x="990" y="529" type="curve"/>
      <point x="935" y="570"/>
      <point x="872" y="604"/>
    </contour>
    <contour>
      <point x="818" y="-121" type="move" name="blwm"/>
    </contour>
    <contour>
      <point x="717" y="628" type="move" name="abvm_Ekaar"/>
    </contour>
  </outline>
</glyph>
<glyph name="dvL_DDHA" format="1">
  <advance width="1234"/>
  <outline>
    <contour>
      <point x="693" y="565" type="line"/>
      <point x="710" y="577"/>
      <point x="718" y="595"/>
      <point x="722" y="612" type="curve"/>
      <point x="710" y="627" type="line"/>
      <point x="3" y="627" type="line"/>
      <point x="-14" y="615"/>
      <point x="-26" y="597"/>
      <point x="-34" y="584" type="curve"/>
      <point x="-14" y="565" type="line"/>
    </contour>
    <contour>
      <point x="630" y="378" type="line"/>
      <point x="559" y="352"/>
      <point x="490" y="333"/>
      <point x="410" y="309" type="curve"/>
      <point x="400" y="316" type="line"/>
      <point x="423" y="336"/>
      <point x="447" y="357"/>
      <point x="470" y="377" type="curve"/>
      <point x="464" y="440"/>
      <point x="433" y="482"/>
      <point x="361" y="501" type="curve" smooth="yes"/>
      <point x="327" y="509"/>
      <point x="284" y="513"/>
      <point x="230" y="510" type="curve"/>
      <point x="105" y="460"/>
      <point x="-20" y="356"/>
      <point x="-20" y="259" type="curve" smooth="yes"/>
      <point x="-20" y="183"/>
      <point x="92" y="51"/>
      <point x="200" y="0" type="curve"/>
      <point x="324" y="23"/>
      <point x="363" y="109"/>
      <point x="330" y="158" type="curve"/>
      <point x="241" y="192"/>
      <point x="206" y="226"/>
      <point x="180" y="278" type="curve"/>
      <point x="184" y="325"/>
      <point x="239" y="392"/>
      <point x="264" y="392" type="curve" smooth="yes"/>
      <point x="294" y="392"/>
      <point x="315" y="370"/>
      <point x="322" y="347" type="curve"/>
      <point x="301" y="337"/>
      <point x="281" y="327"/>
      <point x="264" y="317" type="curve"/>
      <point x="249" y="265"/>
      <point x="297" y="206"/>
      <point x="412" y="186" type="curve"/>
      <point x="507" y="225"/>
      <point x="588" y="271"/>
      <point x="680" y="319" type="curve"/>
    </contour>
    <contour>
      <point x="1362" y="565" type="line"/>
      <point x="1379" y="577"/>
      <point x="1387" y="595"/>
      <point x="1391" y="612" type="curve"/>
      <point x="1379" y="627" type="line"/>
      <point x="508" y="627" type="line"/>
      <point x="491" y="615"/>
      <point x="479" y="597"/>
      <point x="471" y="584" type="curve"/>
      <point x="491" y="565" type="line"/>
    </contour>
    <contour>
      <point x="864" y="616" type="curve"/>
      <point x="806" y="566" type="line"/>
      <point x="845" y="547"/>
      <point x="881" y="525"/>
      <point x="909" y="492" type="curve"/>
      <point x="906" y="484" type="line"/>
      <point x="811" y="439"/>
      <point x="709" y="406"/>
      <point x="590" y="364" type="curve"/>
      <point x="551" y="336"/>
      <point x="526" y="282"/>
      <point x="527" y="217" type="curve"/>
      <point x="579" y="88"/>
      <point x="717" y="9"/>
      <point x="864" y="0" type="curve"/>
      <point x="970" y="0"/>
      <point x="1193" y="91"/>
      <point x="1193" y="192" type="curve" smooth="yes"/>
      <point x="1193" y="244"/>
      <point x="1103" y="320"/>
      <point x="960" y="313" type="curve"/>
      <point x="908" y="274"/>
      <point x="789" y="199"/>
      <point x="708" y="146" type="curve"/>
      <point x="757" y="92" type="line"/>
      <point x="822" y="129"/>
      <point x="898" y="174"/>
      <point x="945" y="199" type="curve"/>
      <point x="968" y="193"/>
      <point x="986" y="186"/>
      <point x="1002" y="176" type="curve"/>
      <point x="991" y="139"/>
      <point x="937" y="100"/>
      <point x="865" y="90" type="curve"/>
      <point x="789" y="125"/>
      <point x="739" y="182"/>
      <point x="739" y="223" type="curve" smooth="yes"/>
      <point x="739" y="271"/>
      <point x="916" y="322"/>
      <point x="1020" y="379" type="curve"/>
      <point x="1061" y="422"/>
      <point x="1087" y="474"/>
      <point x="1067" y="524" type="curve"/>
      <point x="998" y="564"/>
      <point x="935" y="588"/>
    </contour>
    <contour>
      <point x="962" y="8" type="move" name="blwm"/>
    </contour>
    <contour>
      <point x="745" y="628" type="move" name="abvm_Ekaar"/>
    </contour>
  </outline>
</glyph>
<glyph name="dvL_JA" format="1">
  <advance width="1399"/>
  <outline>
    <contour>
      <point x="693" y="565" type="line"/>
      <point x="710" y="577"/>
      <point x="718" y="595"/>
      <point x="722" y="612" type="curve"/>
      <point x="710" y="627" type="line"/>
      <point x="3" y="627" type="line"/>
      <point x="-14" y="615"/>
      <point x="-26" y="597"/>
      <point x="-34" y="584" type="curve"/>
      <point x="-14" y="565" type="line"/>
    </contour>
    <contour>
      <point x="602" y="454" type="line"/>
      <point x="542" y="400"/>
      <point x="469" y="349"/>
      <point x="410" y="309" type="curve"/>
      <point x="400" y="316" type="line"/>
      <point x="423" y="336"/>
      <point x="447" y="357"/>
      <point x="470" y="377" type="curve"/>
      <point x="464" y="440"/>
      <point x="433" y="482"/>
      <point x="361" y="501" type="curve" smooth="yes"/>
      <point x="327" y="509"/>
      <point x="284" y="513"/>
      <point x="230" y="510" type="curve"/>
      <point x="105" y="460"/>
      <point x="-20" y="356"/>
      <point x="-20" y="259" type="curve" smooth="yes"/>
      <point x="-20" y="183"/>
      <point x="92" y="51"/>
      <point x="200" y="0" type="curve"/>
      <point x="324" y="23"/>
      <point x="363" y="109"/>
      <point x="330" y="158" type="curve"/>
      <point x="241" y="192"/>
      <point x="206" y="226"/>
      <point x="180" y="278" type="curve"/>
      <point x="184" y="325"/>
      <point x="239" y="392"/>
      <point x="264" y="392" type="curve" smooth="yes"/>
      <point x="294" y="392"/>
      <point x="315" y="370"/>
      <point x="322" y="347" type="curve"/>
      <point x="301" y="337"/>
      <point x="281" y="327"/>
      <point x="260" y="317" type="curve"/>
      <point x="249" y="265"/>
      <point x="297" y="206"/>
      <point x="412" y="186" type="curve"/>
      <point x="499" y="257"/>
      <point x="586" y="324"/>
      <point x="649" y="393" type="curve"/>
    </contour>
    <contour>
      <point x="1402" y="597" type="line"/>
      <point x="1372" y="651"/>
      <point x="1314" y="673"/>
      <point x="1166" y="658" type="curve"/>
      <point x="1098" y="339" type="line"/>
      <point x="1120" y="313" type="line"/>
      <point x="1080" y="255" type="line"/>
      <point x="1037" y="64" type="line"/>
      <point x="1127" y="-5"/>
      <point x="1261" y="-17"/>
      <point x="1300" y="25" type="curve"/>
      <point x="1304" y="419" type="line"/>
    </contour>
    <contour>
      <point x="1527" y="565" type="line"/>
      <point x="1544" y="577"/>
      <point x="1552" y="595"/>
      <point x="1556" y="612" type="curve"/>
      <point x="1544" y="627" type="line"/>
      <point x="512" y="627" type="line"/>
      <point x="495" y="615"/>
      <point x="483" y="597"/>
      <point x="475" y="584" type="curve"/>
      <point x="495" y="565" type="line"/>
    </contour>
    <contour>
      <point x="683" y="533" type="curve"/>
      <point x="602" y="477"/>
      <point x="543" y="381"/>
      <point x="529" y="306" type="curve"/>
      <point x="534" y="194"/>
      <point x="629" y="112"/>
      <point x="721" y="79" type="curve"/>
      <point x="832" y="71"/>
      <point x="983" y="149"/>
      <point x="987" y="243" type="curve"/>
      <point x="980" y="279" type="line"/>
      <point x="985" y="285" type="line"/>
      <point x="1015" y="287" type="line"/>
      <point x="1076" y="294"/>
      <point x="1138" y="325"/>
      <point x="1171" y="383" type="curve"/>
      <point x="1118" y="434" type="line"/>
      <point x="1096" y="411"/>
      <point x="1047" y="383"/>
      <point x="1013" y="383" type="curve" smooth="yes"/>
      <point x="999" y="383"/>
      <point x="975" y="413"/>
      <point x="959" y="437" type="curve"/>
      <point x="888" y="443"/>
      <point x="838" y="396"/>
      <point x="816" y="304" type="curve"/>
      <point x="828" y="297"/>
      <point x="838" y="289"/>
      <point x="849" y="282" type="curve"/>
      <point x="845" y="245"/>
      <point x="792" y="200"/>
      <point x="743" y="193" type="curve"/>
      <point x="729" y="217"/>
      <point x="723" y="251"/>
      <point x="726" y="281" type="curve" smooth="yes"/>
      <point x="732" y="339"/>
      <point x="782" y="386"/>
      <point x="831" y="421" type="curve"/>
      <point x="838" y="486"/>
      <point x="780" y="533"/>
    </contour>
  </outline>
</glyph>
<glyph name="dvL_KA" format="1">
  <advance width="1468"/>
  <outline>
    <contour>
      <point x="693" y="565" type="line"/>
      <point x="710" y="577"/>
      <point x="718" y="595"/>
      <point x="722" y="612" type="curve"/>
      <point x="710" y="627" type="line"/>
      <point x="3" y="627" type="line"/>
      <point x="-14" y="615"/>
      <point x="-26" y="597"/>
      <point x="-34" y="584" type="curve"/>
      <point x="-14" y="565" type="line"/>
    </contour>
    <contour>
      <point x="572" y="434" type="line"/>
      <point x="512" y="380"/>
      <point x="469" y="349"/>
      <point x="410" y="309" type="curve"/>
      <point x="400" y="316" type="line"/>
      <point x="423" y="336"/>
      <point x="447" y="357"/>
      <point x="470" y="377" type="curve"/>
      <point x="464" y="440"/>
      <point x="433" y="482"/>
      <point x="361" y="501" type="curve" smooth="yes"/>
      <point x="327" y="509"/>
      <point x="284" y="513"/>
      <point x="230" y="510" type="curve"/>
      <point x="105" y="460"/>
      <point x="-20" y="356"/>
      <point x="-20" y="259" type="curve" smooth="yes"/>
      <point x="-20" y="183"/>
      <point x="92" y="51"/>
      <point x="200" y="0" type="curve"/>
      <point x="324" y="23"/>
      <point x="363" y="109"/>
      <point x="330" y="158" type="curve"/>
      <point x="241" y="192"/>
      <point x="206" y="226"/>
      <point x="180" y="278" type="curve"/>
      <point x="184" y="325"/>
      <point x="239" y="392"/>
      <point x="264" y="392" type="curve" smooth="yes"/>
      <point x="294" y="392"/>
      <point x="315" y="370"/>
      <point x="322" y="347" type="curve"/>
      <point x="301" y="337"/>
      <point x="281" y="327"/>
      <point x="260" y="317" type="curve"/>
      <point x="249" y="265"/>
      <point x="297" y="206"/>
      <point x="412" y="186" type="curve"/>
      <point x="499" y="257"/>
      <point x="556" y="304"/>
      <point x="619" y="373" type="curve"/>
    </contour>
    <contour>
      <point x="916" y="428" type="line"/>
      <point x="909" y="424" type="line"/>
      <point x="873" y="463"/>
      <point x="818" y="525"/>
      <point x="796" y="525" type="curve"/>
      <point x="640" y="525"/>
      <point x="478" y="387"/>
      <point x="478" y="259" type="curve" smooth="yes"/>
      <point x="478" y="146"/>
      <point x="594" y="87"/>
      <point x="729" y="87" type="curve"/>
      <point x="784" y="146"/>
      <point x="826" y="184"/>
      <point x="873" y="227" type="curve"/>
      <point x="883" y="214" type="line"/>
      <point x="839" y="150" type="line"/>
      <point x="818" y="64" type="line"/>
      <point x="908" y="-5"/>
      <point x="1042" y="-17"/>
      <point x="1081" y="25" type="curve"/>
      <point x="1084" y="321" type="line"/>
      <point x="1089" y="358" type="line"/>
      <point x="1045" y="393" type="line"/>
      <point x="1093" y="463"/>
      <point x="1140" y="526"/>
      <point x="1183" y="597" type="curve"/>
      <point x="1153" y="651"/>
      <point x="1095" y="673"/>
      <point x="947" y="658" type="curve"/>
    </contour>
    <contour>
      <point x="1596" y="565" type="line"/>
      <point x="1613" y="577"/>
      <point x="1621" y="595"/>
      <point x="1625" y="612" type="curve"/>
      <point x="1613" y="627" type="line"/>
      <point x="451" y="627" type="line"/>
      <point x="434" y="615"/>
      <point x="422" y="597"/>
      <point x="414" y="584" type="curve"/>
      <point x="434" y="565" type="line"/>
    </contour>
    <contour>
      <point x="733" y="201" type="curve"/>
      <point x="710" y="213"/>
      <point x="698" y="231"/>
      <point x="698" y="268" type="curve" smooth="yes"/>
      <point x="698" y="316"/>
      <point x="748" y="382"/>
      <point x="812" y="412" type="curve"/>
      <point x="839" y="391"/>
      <point x="863" y="365"/>
      <point x="891" y="336" type="curve"/>
      <point x="888" y="322" type="line"/>
      <point x="837" y="281"/>
      <point x="780" y="237"/>
    </contour>
    <contour>
      <point x="1036" y="278" type="line"/>
      <point x="1087" y="316"/>
      <point x="1152" y="360"/>
      <point x="1194" y="386" type="curve"/>
      <point x="1243" y="379"/>
      <point x="1272" y="352"/>
      <point x="1272" y="313" type="curve" smooth="yes"/>
      <point x="1272" y="264"/>
      <point x="1248" y="226"/>
      <point x="1146" y="161" type="curve"/>
      <point x="1132" y="131"/>
      <point x="1149" y="111"/>
      <point x="1195" y="91" type="curve"/>
      <point x="1343" y="170"/>
      <point x="1463" y="231"/>
      <point x="1463" y="364" type="curve" smooth="yes"/>
      <point x="1463" y="473"/>
      <point x="1348" y="542"/>
      <point x="1201" y="510" type="curve"/>
      <point x="1130" y="445"/>
      <point x="1060" y="381"/>
      <point x="993" y="327" type="curve"/>
    </contour>
    <contour>
      <point x="1059" y="8" type="move" name="blwm"/>
    </contour>
    <contour>
      <point x="928" y="628" type="move" name="abvm_Ekaar"/>
    </contour>
  </outline>
</glyph>
<glyph name="dvL_KHA" format="1">
  <advance width="1544"/>
  <outline>
    <contour>
      <point x="693" y="565" type="line"/>
      <point x="710" y="577"/>
      <point x="718" y="595"/>
      <point x="722" y="612" type="curve"/>
      <point x="710" y="627" type="line"/>
      <point x="3" y="627" type="line"/>
      <point x="-14" y="615"/>
      <point x="-26" y="597"/>
      <point x="-34" y="584" type="curve"/>
      <point x="-14" y="565" type="line"/>
    </contour>
    <contour>
      <point x="574" y="428" type="line"/>
      <point x="513" y="369"/>
      <point x="478" y="344"/>
      <point x="420" y="309" type="curve"/>
      <point x="410" y="316" type="line"/>
      <point x="433" y="336"/>
      <point x="457" y="357"/>
      <point x="480" y="377" type="curve"/>
      <point x="474" y="440"/>
      <point x="443" y="482"/>
      <point x="371" y="501" type="curve" smooth="yes"/>
      <point x="337" y="509"/>
      <point x="294" y="513"/>
      <point x="240" y="510" type="curve"/>
      <point x="115" y="460"/>
      <point x="-10" y="356"/>
      <point x="-10" y="259" type="curve" smooth="yes"/>
      <point x="-10" y="183"/>
      <point x="102" y="51"/>
      <point x="210" y="0" type="curve"/>
      <point x="334" y="23"/>
      <point x="373" y="109"/>
      <point x="340" y="158" type="curve"/>
      <point x="251" y="192"/>
      <point x="216" y="226"/>
      <point x="190" y="278" type="curve"/>
      <point x="194" y="325"/>
      <point x="249" y="392"/>
      <point x="274" y="392" type="curve" smooth="yes"/>
      <point x="304" y="392"/>
      <point x="325" y="370"/>
      <point x="332" y="347" type="curve"/>
      <point x="311" y="337"/>
      <point x="291" y="327"/>
      <point x="270" y="317" type="curve"/>
      <point x="259" y="265"/>
      <point x="307" y="206"/>
      <point x="422" y="186" type="curve"/>
      <point x="509" y="257"/>
      <point x="558" y="298"/>
      <point x="621" y="367" type="curve"/>
    </contour>
    <contour>
      <point x="1672" y="565" type="line"/>
      <point x="1689" y="577"/>
      <point x="1697" y="595"/>
      <point x="1701" y="612" type="curve"/>
      <point x="1689" y="627" type="line"/>
      <point x="472" y="627" type="line"/>
      <point x="455" y="615"/>
      <point x="443" y="597"/>
      <point x="435" y="584" type="curve"/>
      <point x="455" y="565" type="line"/>
    </contour>
    <contour>
      <point x="1154" y="250" type="curve"/>
      <point x="1130" y="250"/>
      <point x="1111" y="270"/>
      <point x="1111" y="302" type="curve" smooth="yes"/>
      <point x="1111" y="347"/>
      <point x="1149" y="393"/>
      <point x="1202" y="417" type="curve"/>
      <point x="1227" y="400"/>
      <point x="1242" y="379"/>
      <point x="1251" y="348" type="curve"/>
      <point x="1249" y="334" type="line"/>
      <point x="1231" y="293"/>
      <point x="1191" y="250"/>
    </contour>
    <contour>
      <point x="805" y="23" type="curve"/>
      <point x="946" y="40"/>
      <point x="1129" y="132"/>
      <point x="1219" y="196" type="curve"/>
      <point x="1229" y="183" type="line"/>
      <point x="1202" y="150" type="line"/>
      <point x="1181" y="64" type="line"/>
      <point x="1271" y="-5"/>
      <point x="1405" y="-17"/>
      <point x="1444" y="25" type="curve"/>
      <point x="1449" y="419" type="line"/>
      <point x="1546" y="597" type="line"/>
      <point x="1516" y="651"/>
      <point x="1458" y="673"/>
      <point x="1310" y="658" type="curve"/>
      <point x="1279" y="428" type="line"/>
      <point x="1272" y="424" type="line"/>
      <point x="1257" y="473"/>
      <point x="1225" y="525"/>
      <point x="1181" y="525" type="curve" smooth="yes"/>
      <point x="1064" y="525"/>
      <point x="940" y="388"/>
      <point x="940" y="292" type="curve" smooth="yes"/>
      <point x="940" y="246"/>
      <point x="969" y="209"/>
      <point x="1043" y="203" type="curve"/>
      <point x="1048" y="198" type="line"/>
      <point x="994" y="182"/>
      <point x="927" y="163"/>
      <point x="854" y="157" type="curve"/>
      <point x="785" y="185"/>
      <point x="738" y="214"/>
      <point x="695" y="260" type="curve"/>
      <point x="698" y="268" type="line"/>
      <point x="855" y="296"/>
      <point x="992" y="381"/>
      <point x="992" y="500" type="curve" smooth="yes"/>
      <point x="992" y="549"/>
      <point x="870" y="627"/>
      <point x="793" y="627" type="curve" smooth="yes"/>
      <point x="713" y="627"/>
      <point x="630" y="601"/>
      <point x="595" y="572" type="curve"/>
      <point x="566" y="523"/>
      <point x="612" y="461"/>
      <point x="699" y="433" type="curve"/>
      <point x="731" y="461"/>
      <point x="775" y="482"/>
      <point x="809" y="482" type="curve" smooth="yes"/>
      <point x="818" y="482"/>
      <point x="826" y="481"/>
      <point x="833" y="478" type="curve"/>
      <point x="829" y="410"/>
      <point x="763" y="354"/>
      <point x="654" y="327" type="curve"/>
      <point x="616" y="373" type="line"/>
      <point x="545" y="374"/>
      <point x="480" y="311"/>
      <point x="476" y="230" type="curve"/>
      <point x="534" y="127"/>
      <point x="681" y="46"/>
    </contour>
  </outline>
</glyph>
<glyph name="dvL_K_YA" format="1">
  <advance width="2093"/>
  <outline>
    <contour>
      <point x="693" y="565" type="line"/>
      <point x="710" y="577"/>
      <point x="718" y="595"/>
      <point x="722" y="612" type="curve"/>
      <point x="710" y="627" type="line"/>
      <point x="3" y="627" type="line"/>
      <point x="-14" y="615"/>
      <point x="-26" y="597"/>
      <point x="-34" y="584" type="curve"/>
      <point x="-14" y="565" type="line"/>
    </contour>
    <contour>
      <point x="572" y="434" type="line"/>
      <point x="512" y="380"/>
      <point x="469" y="349"/>
      <point x="410" y="309" type="curve"/>
      <point x="400" y="316" type="line"/>
      <point x="423" y="336"/>
      <point x="447" y="357"/>
      <point x="470" y="377" type="curve"/>
      <point x="464" y="440"/>
      <point x="433" y="482"/>
      <point x="361" y="501" type="curve" smooth="yes"/>
      <point x="327" y="509"/>
      <point x="284" y="513"/>
      <point x="230" y="510" type="curve"/>
      <point x="105" y="460"/>
      <point x="-20" y="356"/>
      <point x="-20" y="259" type="curve" smooth="yes"/>
      <point x="-20" y="183"/>
      <point x="92" y="51"/>
      <point x="200" y="0" type="curve"/>
      <point x="324" y="23"/>
      <point x="363" y="109"/>
      <point x="330" y="158" type="curve"/>
      <point x="241" y="192"/>
      <point x="206" y="226"/>
      <point x="180" y="278" type="curve"/>
      <point x="184" y="325"/>
      <point x="239" y="392"/>
      <point x="264" y="392" type="curve" smooth="yes"/>
      <point x="294" y="392"/>
      <point x="315" y="370"/>
      <point x="322" y="347" type="curve"/>
      <point x="301" y="337"/>
      <point x="281" y="327"/>
      <point x="260" y="317" type="curve"/>
      <point x="249" y="265"/>
      <point x="297" y="206"/>
      <point x="412" y="186" type="curve"/>
      <point x="499" y="257"/>
      <point x="556" y="304"/>
      <point x="619" y="373" type="curve"/>
    </contour>
    <contour>
      <point x="916" y="428" type="line"/>
      <point x="909" y="424" type="line"/>
      <point x="873" y="463"/>
      <point x="818" y="525"/>
      <point x="796" y="525" type="curve"/>
      <point x="640" y="525"/>
      <point x="478" y="387"/>
      <point x="478" y="259" type="curve" smooth="yes"/>
      <point x="478" y="146"/>
      <point x="594" y="87"/>
      <point x="729" y="87" type="curve"/>
      <point x="784" y="146"/>
      <point x="826" y="184"/>
      <point x="873" y="227" type="curve"/>
      <point x="883" y="214" type="line"/>
      <point x="839" y="150" type="line"/>
      <point x="818" y="64" type="line"/>
      <point x="908" y="-5"/>
      <point x="1042" y="-17"/>
      <point x="1081" y="25" type="curve"/>
      <point x="1084" y="321" type="line"/>
      <point x="1089" y="358" type="line"/>
      <point x="1045" y="393" type="line"/>
      <point x="1093" y="463"/>
      <point x="1140" y="526"/>
      <point x="1183" y="597" type="curve"/>
      <point x="1153" y="651"/>
      <point x="1095" y="673"/>
      <point x="947" y="658" type="curve"/>
    </contour>
    <contour>
      <point x="1406" y="565" type="line"/>
      <point x="1423" y="577"/>
      <point x="1431" y="595"/>
      <point x="1435" y="612" type="curve"/>
      <point x="1423" y="627" type="line"/>
      <point x="451" y="627" type="line"/>
      <point x="434" y="615"/>
      <point x="422" y="597"/>
      <point x="414" y="584" type="curve"/>
      <point x="434" y="565" type="line"/>
    </contour>
    <contour>
      <point x="733" y="201" type="curve"/>
      <point x="710" y="213"/>
      <point x="698" y="231"/>
      <point x="698" y="268" type="curve" smooth="yes"/>
      <point x="698" y="316"/>
      <point x="748" y="382"/>
      <point x="812" y="412" type="curve"/>
      <point x="839" y="391"/>
      <point x="863" y="365"/>
      <point x="891" y="336" type="curve"/>
      <point x="888" y="322" type="line"/>
      <point x="837" y="281"/>
      <point x="780" y="237"/>
    </contour>
    <contour>
      <point x="1426" y="326" type="line"/>
      <point x="1406" y="432"/>
      <point x="1332" y="513"/>
      <point x="1201" y="510" type="curve"/>
      <point x="1130" y="445"/>
      <point x="1060" y="381"/>
      <point x="993" y="327" type="curve"/>
      <point x="1036" y="278" type="line"/>
      <point x="1087" y="316"/>
      <point x="1152" y="360"/>
      <point x="1194" y="386" type="curve"/>
      <point x="1240" y="382"/>
      <point x="1292" y="340"/>
      <point x="1297" y="257" type="curve"/>
    </contour>
    <contour>
      <point x="2096" y="597" type="line"/>
      <point x="2066" y="651"/>
      <point x="2008" y="673"/>
      <point x="1860" y="658" type="curve"/>
      <point x="1774" y="262" type="line"/>
      <point x="1802" y="231" type="line"/>
      <point x="1755" y="171" type="line"/>
      <point x="1731" y="64" type="line"/>
      <point x="1821" y="-5"/>
      <point x="1955" y="-17"/>
      <point x="1994" y="25" type="curve"/>
      <point x="1998" y="419" type="line"/>
    </contour>
    <contour>
      <point x="2221" y="565" type="line"/>
      <point x="2238" y="577"/>
      <point x="2246" y="595"/>
      <point x="2250" y="612" type="curve"/>
      <point x="2238" y="627" type="line"/>
      <point x="1262" y="627" type="line"/>
      <point x="1244" y="615"/>
      <point x="1231" y="597"/>
      <point x="1223" y="584" type="curve"/>
      <point x="1244" y="565" type="line"/>
    </contour>
    <contour>
      <point x="1350" y="578" type="curve"/>
      <point x="1318" y="524"/>
      <point x="1365" y="464"/>
      <point x="1461" y="440" type="curve"/>
      <point x="1480" y="450"/>
      <point x="1502" y="459"/>
      <point x="1524" y="465" type="curve" smooth="yes"/>
      <point x="1545" y="470"/>
      <point x="1567" y="471"/>
      <point x="1588" y="466" type="curve"/>
      <point x="1568" y="344"/>
      <point x="1296" y="317"/>
      <point x="1296" y="250" type="curve" smooth="yes"/>
      <point x="1296" y="170"/>
      <point x="1436" y="81"/>
      <point x="1516" y="81" type="curve" smooth="yes"/>
      <point x="1582" y="81"/>
      <point x="1791" y="220"/>
      <point x="1851" y="318" type="curve"/>
      <point x="1797" y="365" type="line"/>
      <point x="1737" y="298"/>
      <point x="1688" y="267"/>
      <point x="1607" y="225" type="curve"/>
      <point x="1583" y="227"/>
      <point x="1542" y="250"/>
      <point x="1551" y="284" type="curve"/>
      <point x="1647" y="338"/>
      <point x="1758" y="425"/>
      <point x="1758" y="500" type="curve" smooth="yes"/>
      <point x="1758" y="551"/>
      <point x="1674" y="627"/>
      <point x="1555" y="627" type="curve" smooth="yes"/>
      <point x="1497" y="627"/>
      <point x="1406" y="615"/>
    </contour>
  </outline>
</glyph>
<glyph name="dvL_LA" format="1">
  <advance width="1358"/>
  <outline>
    <contour>
      <point x="693" y="565" type="line"/>
      <point x="710" y="577"/>
      <point x="718" y="595"/>
      <point x="722" y="612" type="curve"/>
      <point x="710" y="627" type="line"/>
      <point x="3" y="627" type="line"/>
      <point x="-14" y="615"/>
      <point x="-26" y="597"/>
      <point x="-34" y="584" type="curve"/>
      <point x="-14" y="565" type="line"/>
    </contour>
    <contour>
      <point x="570" y="423" type="line"/>
      <point x="515" y="379"/>
      <point x="469" y="349"/>
      <point x="410" y="309" type="curve"/>
      <point x="400" y="316" type="line"/>
      <point x="423" y="336"/>
      <point x="447" y="357"/>
      <point x="470" y="377" type="curve"/>
      <point x="464" y="440"/>
      <point x="433" y="482"/>
      <point x="361" y="501" type="curve" smooth="yes"/>
      <point x="327" y="509"/>
      <point x="284" y="513"/>
      <point x="230" y="510" type="curve"/>
      <point x="105" y="460"/>
      <point x="-20" y="356"/>
      <point x="-20" y="259" type="curve" smooth="yes"/>
      <point x="-20" y="183"/>
      <point x="92" y="51"/>
      <point x="200" y="0" type="curve"/>
      <point x="324" y="23"/>
      <point x="363" y="109"/>
      <point x="330" y="158" type="curve"/>
      <point x="241" y="192"/>
      <point x="206" y="226"/>
      <point x="180" y="278" type="curve"/>
      <point x="184" y="325"/>
      <point x="239" y="392"/>
      <point x="264" y="392" type="curve" smooth="yes"/>
      <point x="294" y="392"/>
      <point x="315" y="370"/>
      <point x="322" y="347" type="curve"/>
      <point x="301" y="337"/>
      <point x="281" y="327"/>
      <point x="260" y="317" type="curve"/>
      <point x="249" y="265"/>
      <point x="297" y="206"/>
      <point x="412" y="186" type="curve"/>
      <point x="499" y="257"/>
      <point x="559" y="303"/>
      <point x="617" y="362" type="curve"/>
    </contour>
    <contour>
      <point x="1361" y="597" type="line"/>
      <point x="1331" y="651"/>
      <point x="1273" y="673"/>
      <point x="1125" y="658" type="curve"/>
      <point x="1060" y="358" type="line"/>
      <point x="1081" y="332" type="line"/>
      <point x="1040" y="266" type="line"/>
      <point x="996" y="64" type="line"/>
      <point x="1086" y="-5"/>
      <point x="1220" y="-17"/>
      <point x="1259" y="25" type="curve"/>
      <point x="1263" y="419" type="line"/>
    </contour>
    <contour>
      <point x="1486" y="565" type="line"/>
      <point x="1503" y="577"/>
      <point x="1511" y="595"/>
      <point x="1515" y="612" type="curve"/>
      <point x="1503" y="627" type="line"/>
      <point x="491" y="627" type="line"/>
      <point x="474" y="615"/>
      <point x="462" y="597"/>
      <point x="454" y="584" type="curve"/>
      <point x="474" y="565" type="line"/>
    </contour>
    <contour>
      <point x="888" y="316" type="line"/>
      <point x="911" y="336"/>
      <point x="935" y="357"/>
      <point x="958" y="377" type="curve"/>
      <point x="952" y="440"/>
      <point x="921" y="482"/>
      <point x="849" y="501" type="curve" smooth="yes"/>
      <point x="815" y="509"/>
      <point x="772" y="513"/>
      <point x="718" y="510" type="curve"/>
      <point x="593" y="460"/>
      <point x="468" y="356"/>
      <point x="468" y="259" type="curve" smooth="yes"/>
      <point x="468" y="183"/>
      <point x="580" y="51"/>
      <point x="688" y="0" type="curve"/>
      <point x="812" y="23"/>
      <point x="851" y="109"/>
      <point x="818" y="158" type="curve"/>
      <point x="729" y="192"/>
      <point x="694" y="226"/>
      <point x="668" y="278" type="curve"/>
      <point x="672" y="325"/>
      <point x="727" y="392"/>
      <point x="752" y="392" type="curve" smooth="yes"/>
      <point x="782" y="392"/>
      <point x="803" y="370"/>
      <point x="810" y="347" type="curve"/>
      <point x="789" y="337"/>
      <point x="769" y="327"/>
      <point x="748" y="317" type="curve"/>
      <point x="737" y="265"/>
      <point x="785" y="206"/>
      <point x="900" y="186" type="curve"/>
      <point x="987" y="257"/>
      <point x="1066" y="328"/>
      <point x="1129" y="397" type="curve"/>
      <point x="1082" y="458" type="line"/>
      <point x="1026" y="401"/>
      <point x="959" y="347"/>
      <point x="898" y="309" type="curve"/>
    </contour>
  </outline>
</glyph>
<glyph name="dvL_L_YA" format="1">
  <advance width="1720"/>
  <outline>
    <contour>
      <point x="693" y="565" type="line"/>
      <point x="710" y="577"/>
      <point x="718" y="595"/>
      <point x="722" y="612" type="curve"/>
      <point x="710" y="627" type="line"/>
      <point x="3" y="627" type="line"/>
      <point x="-14" y="615"/>
      <point x="-26" y="597"/>
      <point x="-34" y="584" type="curve"/>
      <point x="-14" y="565" type="line"/>
    </contour>
    <contour>
      <point x="570" y="423" type="line"/>
      <point x="515" y="379"/>
      <point x="469" y="349"/>
      <point x="410" y="309" type="curve"/>
      <point x="400" y="316" type="line"/>
      <point x="423" y="336"/>
      <point x="447" y="357"/>
      <point x="470" y="377" type="curve"/>
      <point x="464" y="440"/>
      <point x="433" y="482"/>
      <point x="361" y="501" type="curve" smooth="yes"/>
      <point x="327" y="509"/>
      <point x="284" y="513"/>
      <point x="230" y="510" type="curve"/>
      <point x="105" y="460"/>
      <point x="-20" y="356"/>
      <point x="-20" y="259" type="curve" smooth="yes"/>
      <point x="-20" y="183"/>
      <point x="92" y="51"/>
      <point x="200" y="0" type="curve"/>
      <point x="324" y="23"/>
      <point x="363" y="109"/>
      <point x="330" y="158" type="curve"/>
      <point x="241" y="192"/>
      <point x="206" y="226"/>
      <point x="180" y="278" type="curve"/>
      <point x="184" y="325"/>
      <point x="239" y="392"/>
      <point x="264" y="392" type="curve" smooth="yes"/>
      <point x="294" y="392"/>
      <point x="315" y="370"/>
      <point x="322" y="347" type="curve"/>
      <point x="301" y="337"/>
      <point x="281" y="327"/>
      <point x="260" y="317" type="curve"/>
      <point x="249" y="265"/>
      <point x="297" y="206"/>
      <point x="412" y="186" type="curve"/>
      <point x="499" y="257"/>
      <point x="559" y="303"/>
      <point x="617" y="362" type="curve"/>
    </contour>
    <contour>
      <point x="1181" y="565" type="line"/>
      <point x="1198" y="577"/>
      <point x="1206" y="595"/>
      <point x="1210" y="612" type="curve"/>
      <point x="1198" y="627" type="line"/>
      <point x="491" y="627" type="line"/>
      <point x="474" y="615"/>
      <point x="462" y="597"/>
      <point x="454" y="584" type="curve"/>
      <point x="474" y="565" type="line"/>
    </contour>
    <contour>
      <point x="1113" y="361" type="line"/>
      <point x="1034" y="320"/>
      <point x="965" y="312"/>
      <point x="898" y="309" type="curve"/>
      <point x="888" y="316" type="line"/>
      <point x="911" y="336"/>
      <point x="935" y="357"/>
      <point x="958" y="377" type="curve"/>
      <point x="952" y="440"/>
      <point x="921" y="482"/>
      <point x="849" y="501" type="curve" smooth="yes"/>
      <point x="815" y="509"/>
      <point x="772" y="513"/>
      <point x="718" y="510" type="curve"/>
      <point x="593" y="460"/>
      <point x="468" y="356"/>
      <point x="468" y="259" type="curve" smooth="yes"/>
      <point x="468" y="183"/>
      <point x="580" y="51"/>
      <point x="688" y="0" type="curve"/>
      <point x="812" y="23"/>
      <point x="851" y="109"/>
      <point x="818" y="158" type="curve"/>
      <point x="729" y="192"/>
      <point x="694" y="226"/>
      <point x="668" y="278" type="curve"/>
      <point x="672" y="325"/>
      <point x="727" y="392"/>
      <point x="752" y="392" type="curve" smooth="yes"/>
      <point x="782" y="392"/>
      <point x="803" y="370"/>
      <point x="810" y="347" type="curve"/>
      <point x="789" y="337"/>
      <point x="769" y="327"/>
      <point x="748" y="317" type="curve"/>
      <point x="737" y="265"/>
      <point x="785" y="206"/>
      <point x="900" y="186" type="curve"/>
      <point x="1009" y="211"/>
      <point x="1094" y="253"/>
      <point x="1160" y="300" type="curve"/>
    </contour>
    <contour>
      <point x="1723" y="597" type="line"/>
      <point x="1693" y="651"/>
      <point x="1635" y="673"/>
      <point x="1487" y="658" type="curve"/>
      <point x="1401" y="262" type="line"/>
      <point x="1429" y="231" type="line"/>
      <point x="1382" y="171" type="line"/>
      <point x="1358" y="64" type="line"/>
      <point x="1448" y="-5"/>
      <point x="1582" y="-17"/>
      <point x="1621" y="25" type="curve"/>
      <point x="1625" y="419" type="line"/>
    </contour>
    <contour>
      <point x="1848" y="565" type="line"/>
      <point x="1865" y="577"/>
      <point x="1873" y="595"/>
      <point x="1877" y="612" type="curve"/>
      <point x="1865" y="627" type="line"/>
      <point x="889" y="627" type="line"/>
      <point x="871" y="615"/>
      <point x="858" y="597"/>
      <point x="850" y="584" type="curve"/>
      <point x="871" y="565" type="line"/>
    </contour>
    <contour>
      <point x="977" y="578" type="curve"/>
      <point x="945" y="524"/>
      <point x="992" y="464"/>
      <point x="1088" y="440" type="curve"/>
      <point x="1107" y="450"/>
      <point x="1129" y="459"/>
      <point x="1151" y="465" type="curve" smooth="yes"/>
      <point x="1172" y="470"/>
      <point x="1194" y="471"/>
      <point x="1215" y="466" type="curve"/>
      <point x="1195" y="344"/>
      <point x="923" y="317"/>
      <point x="923" y="250" type="curve" smooth="yes"/>
      <point x="923" y="170"/>
      <point x="1063" y="81"/>
      <point x="1143" y="81" type="curve" smooth="yes"/>
      <point x="1209" y="81"/>
      <point x="1418" y="220"/>
      <point x="1478" y="318" type="curve"/>
      <point x="1424" y="365" type="line"/>
      <point x="1364" y="298"/>
      <point x="1315" y="267"/>
      <point x="1234" y="225" type="curve"/>
      <point x="1210" y="227"/>
      <point x="1169" y="250"/>
      <point x="1178" y="284" type="curve"/>
      <point x="1274" y="338"/>
      <point x="1385" y="425"/>
      <point x="1385" y="500" type="curve" smooth="yes"/>
      <point x="1385" y="551"/>
      <point x="1301" y="627"/>
      <point x="1182" y="627" type="curve" smooth="yes"/>
      <point x="1124" y="627"/>
      <point x="1033" y="615"/>
    </contour>
  </outline>
</glyph>
<glyph name="dvL_PA" format="1">
  <advance width="1249"/>
  <outline>
    <contour>
      <point x="400" y="316" type="line"/>
      <point x="423" y="336"/>
      <point x="447" y="357"/>
      <point x="470" y="377" type="curve"/>
      <point x="464" y="440"/>
      <point x="433" y="482"/>
      <point x="361" y="501" type="curve" smooth="yes"/>
      <point x="327" y="509"/>
      <point x="284" y="513"/>
      <point x="230" y="510" type="curve"/>
      <point x="105" y="460"/>
      <point x="-20" y="356"/>
      <point x="-20" y="259" type="curve" smooth="yes"/>
      <point x="-20" y="183"/>
      <point x="92" y="51"/>
      <point x="200" y="0" type="curve"/>
      <point x="324" y="23"/>
      <point x="363" y="109"/>
      <point x="330" y="158" type="curve"/>
      <point x="241" y="192"/>
      <point x="206" y="226"/>
      <point x="180" y="278" type="curve"/>
      <point x="184" y="325"/>
      <point x="239" y="392"/>
      <point x="264" y="392" type="curve" smooth="yes"/>
      <point x="294" y="392"/>
      <point x="315" y="370"/>
      <point x="322" y="347" type="curve"/>
      <point x="301" y="337"/>
      <point x="281" y="327"/>
      <point x="260" y="317" type="curve"/>
      <point x="249" y="265"/>
      <point x="297" y="206"/>
      <point x="412" y="186" type="curve"/>
      <point x="499" y="257"/>
      <point x="578" y="328"/>
      <point x="641" y="397" type="curve"/>
      <point x="594" y="458" type="line"/>
      <point x="538" y="401"/>
      <point x="471" y="347"/>
      <point x="410" y="309" type="curve"/>
    </contour>
    <contour>
      <point x="693" y="565" type="line"/>
      <point x="710" y="577"/>
      <point x="718" y="595"/>
      <point x="722" y="612" type="curve"/>
      <point x="710" y="627" type="line"/>
      <point x="3" y="627" type="line"/>
      <point x="-14" y="615"/>
      <point x="-26" y="597"/>
      <point x="-34" y="584" type="curve"/>
      <point x="-14" y="565" type="line"/>
    </contour>
    <contour>
      <point x="1252" y="597" type="line"/>
      <point x="1222" y="651"/>
      <point x="1164" y="673"/>
      <point x="1016" y="658" type="curve"/>
      <point x="943" y="321" type="line"/>
      <point x="963" y="301" type="line"/>
      <point x="926" y="241" type="line"/>
      <point x="887" y="64" type="line"/>
      <point x="977" y="-5"/>
      <point x="1111" y="-17"/>
      <point x="1150" y="25" type="curve"/>
      <point x="1154" y="419" type="line"/>
    </contour>
    <contour>
      <point x="1377" y="565" type="line"/>
      <point x="1394" y="577"/>
      <point x="1402" y="595"/>
      <point x="1406" y="612" type="curve"/>
      <point x="1394" y="627" type="line"/>
      <point x="492" y="627" type="line"/>
      <point x="475" y="615"/>
      <point x="463" y="597"/>
      <point x="455" y="584" type="curve"/>
      <point x="475" y="565" type="line"/>
    </contour>
    <contour>
      <point x="626" y="603" type="line"/>
      <point x="574" y="481"/>
      <point x="545" y="385"/>
      <point x="520" y="255" type="curve"/>
      <point x="531" y="170"/>
      <point x="636" y="128"/>
      <point x="745" y="123" type="curve"/>
      <point x="837" y="202"/>
      <point x="920" y="277"/>
      <point x="1005" y="356" type="curve"/>
      <point x="962" y="405" type="line"/>
      <point x="889" y="340"/>
      <point x="796" y="283"/>
      <point x="729" y="242" type="curve"/>
      <point x="718" y="247" type="line"/>
      <point x="733" y="340"/>
      <point x="759" y="412"/>
      <point x="785" y="480" type="curve"/>
      <point x="861" y="578" type="line"/>
    </contour>
  </outline>
</glyph>
<glyph name="dvL_PHA" format="1">
  <advance width="1589"/>
  <outline>
    <contour>
      <point x="400" y="316" type="line"/>
      <point x="423" y="336"/>
      <point x="447" y="357"/>
      <point x="470" y="377" type="curve"/>
      <point x="464" y="440"/>
      <point x="433" y="482"/>
      <point x="361" y="501" type="curve" smooth="yes"/>
      <point x="327" y="509"/>
      <point x="284" y="513"/>
      <point x="230" y="510" type="curve"/>
      <point x="105" y="460"/>
      <point x="-20" y="356"/>
      <point x="-20" y="259" type="curve" smooth="yes"/>
      <point x="-20" y="183"/>
      <point x="92" y="51"/>
      <point x="200" y="0" type="curve"/>
      <point x="324" y="23"/>
      <point x="363" y="109"/>
      <point x="330" y="158" type="curve"/>
      <point x="241" y="192"/>
      <point x="206" y="226"/>
      <point x="180" y="278" type="curve"/>
      <point x="184" y="325"/>
      <point x="239" y="392"/>
      <point x="264" y="392" type="curve" smooth="yes"/>
      <point x="294" y="392"/>
      <point x="315" y="370"/>
      <point x="322" y="347" type="curve"/>
      <point x="301" y="337"/>
      <point x="281" y="327"/>
      <point x="260" y="317" type="curve"/>
      <point x="249" y="265"/>
      <point x="297" y="206"/>
      <point x="412" y="186" type="curve"/>
      <point x="499" y="257"/>
      <point x="578" y="328"/>
      <point x="641" y="397" type="curve"/>
      <point x="594" y="458" type="line"/>
      <point x="538" y="401"/>
      <point x="471" y="347"/>
      <point x="410" y="309" type="curve"/>
    </contour>
    <contour>
      <point x="693" y="565" type="line"/>
      <point x="710" y="577"/>
      <point x="718" y="595"/>
      <point x="722" y="612" type="curve"/>
      <point x="710" y="627" type="line"/>
      <point x="3" y="627" type="line"/>
      <point x="-14" y="615"/>
      <point x="-26" y="597"/>
      <point x="-34" y="584" type="curve"/>
      <point x="-14" y="565" type="line"/>
    </contour>
    <contour>
      <point x="1257" y="597" type="line"/>
      <point x="1227" y="651"/>
      <point x="1169" y="673"/>
      <point x="1021" y="658" type="curve"/>
      <point x="948" y="321" type="line"/>
      <point x="968" y="301" type="line"/>
      <point x="931" y="241" type="line"/>
      <point x="892" y="64" type="line"/>
      <point x="982" y="-5"/>
      <point x="1116" y="-17"/>
      <point x="1155" y="25" type="curve"/>
      <point x="1158" y="339" type="line"/>
      <point x="1121" y="375" type="line"/>
      <point x="1159" y="419" type="line"/>
    </contour>
    <contour>
      <point x="1717" y="565" type="line"/>
      <point x="1734" y="577"/>
      <point x="1742" y="595"/>
      <point x="1746" y="612" type="curve"/>
      <point x="1734" y="627" type="line"/>
      <point x="493" y="627" type="line"/>
      <point x="476" y="615"/>
      <point x="464" y="597"/>
      <point x="456" y="584" type="curve"/>
      <point x="476" y="565" type="line"/>
    </contour>
    <contour>
      <point x="1152" y="293" type="line"/>
      <point x="1203" y="331"/>
      <point x="1268" y="375"/>
      <point x="1310" y="401" type="curve"/>
      <point x="1359" y="394"/>
      <point x="1388" y="367"/>
      <point x="1388" y="328" type="curve" smooth="yes"/>
      <point x="1388" y="271"/>
      <point x="1355" y="233"/>
      <point x="1249" y="168" type="curve"/>
      <point x="1302" y="101" type="line"/>
      <point x="1446" y="179"/>
      <point x="1579" y="240"/>
      <point x="1579" y="379" type="curve" smooth="yes"/>
      <point x="1579" y="488"/>
      <point x="1464" y="557"/>
      <point x="1317" y="525" type="curve"/>
      <point x="1246" y="460"/>
      <point x="1176" y="396"/>
      <point x="1109" y="342" type="curve"/>
    </contour>
    <contour>
      <point x="637" y="603" type="line"/>
      <point x="580" y="472"/>
      <point x="552" y="378"/>
      <point x="531" y="248" type="curve"/>
      <point x="537" y="171"/>
      <point x="637" y="129"/>
      <point x="750" y="123" type="curve"/>
      <point x="842" y="202"/>
      <point x="925" y="277"/>
      <point x="1010" y="356" type="curve"/>
      <point x="967" y="405" type="line"/>
      <point x="894" y="340"/>
      <point x="801" y="283"/>
      <point x="734" y="242" type="curve"/>
      <point x="723" y="247" type="line"/>
      <point x="738" y="340"/>
      <point x="764" y="412"/>
      <point x="790" y="480" type="curve"/>
      <point x="866" y="578" type="line"/>
    </contour>
    <contour>
      <point x="1132" y="8" type="move" name="blwm"/>
    </contour>
    <contour>
      <point x="1001" y="628" type="move" name="abvm_Ekaar"/>
    </contour>
  </outline>
</glyph>
<glyph name="dvL_RA" format="1">
  <advance width="871"/>
  <outline>
    <contour>
      <point x="571" y="215" type="line"/>
      <point x="492" y="154"/>
      <point x="433" y="123"/>
      <point x="320" y="75" type="curve"/>
      <point x="297" y="19"/>
      <point x="329" y="-30"/>
      <point x="406" y="-53" type="curve"/>
      <point x="488" y="17"/>
      <point x="521" y="54"/>
      <point x="583" y="120" type="curve"/>
      <point x="595" y="111" type="line"/>
      <point x="561" y="48" type="line"/>
      <point x="643" y="-5"/>
      <point x="761" y="-15"/>
      <point x="801" y="25" type="curve"/>
      <point x="805" y="419" type="line"/>
      <point x="903" y="597" type="line"/>
      <point x="873" y="651"/>
      <point x="815" y="673"/>
      <point x="667" y="658" type="curve"/>
      <point x="602" y="358" type="line"/>
      <point x="623" y="332" type="line"/>
      <point x="582" y="266" type="line"/>
    </contour>
    <contour>
      <point x="1028" y="565" type="line"/>
      <point x="1045" y="577"/>
      <point x="1053" y="595"/>
      <point x="1057" y="612" type="curve"/>
      <point x="1045" y="627" type="line"/>
      <point x="3" y="627" type="line"/>
      <point x="-14" y="615"/>
      <point x="-26" y="597"/>
      <point x="-34" y="584" type="curve"/>
      <point x="-14" y="565" type="line"/>
    </contour>
    <contour>
      <point x="410" y="316" type="line"/>
      <point x="430" y="336"/>
      <point x="450" y="357"/>
      <point x="470" y="377" type="curve"/>
      <point x="465" y="432"/>
      <point x="440" y="471"/>
      <point x="386" y="493" type="curve" smooth="yes"/>
      <point x="349" y="507"/>
      <point x="298" y="513"/>
      <point x="230" y="510" type="curve"/>
      <point x="105" y="460"/>
      <point x="-20" y="356"/>
      <point x="-20" y="259" type="curve" smooth="yes"/>
      <point x="-20" y="197"/>
      <point x="65" y="77"/>
      <point x="173" y="0" type="curve"/>
      <point x="297" y="23"/>
      <point x="330" y="109"/>
      <point x="303" y="158" type="curve"/>
      <point x="229" y="204"/>
      <point x="205" y="233"/>
      <point x="180" y="278" type="curve"/>
      <point x="184" y="325"/>
      <point x="239" y="392"/>
      <point x="264" y="392" type="curve" smooth="yes"/>
      <point x="294" y="392"/>
      <point x="315" y="370"/>
      <point x="322" y="347" type="curve"/>
      <point x="305" y="337"/>
      <point x="287" y="327"/>
      <point x="270" y="317" type="curve"/>
      <point x="259" y="265"/>
      <point x="307" y="206"/>
      <point x="422" y="186" type="curve"/>
      <point x="509" y="257"/>
      <point x="608" y="328"/>
      <point x="671" y="397" type="curve"/>
      <point x="624" y="458" type="line"/>
      <point x="568" y="401"/>
      <point x="481" y="347"/>
      <point x="420" y="309" type="curve"/>
    </contour>
  </outline>
</glyph>
<glyph name="dvL_SA" format="1">
  <advance width="1454"/>
  <outline>
    <contour>
      <point x="693" y="565" type="line"/>
      <point x="710" y="577"/>
      <point x="718" y="595"/>
      <point x="722" y="612" type="curve"/>
      <point x="710" y="627" type="line"/>
      <point x="3" y="627" type="line"/>
      <point x="-14" y="615"/>
      <point x="-26" y="597"/>
      <point x="-34" y="584" type="curve"/>
      <point x="-14" y="565" type="line"/>
    </contour>
    <contour>
      <point x="574" y="426" type="line"/>
      <point x="547" y="402"/>
      <point x="523" y="382"/>
      <point x="500" y="364" type="curve" smooth="yes"/>
      <point x="471" y="343"/>
      <point x="443" y="325"/>
      <point x="410" y="309" type="curve"/>
      <point x="400" y="316" type="line"/>
      <point x="423" y="336"/>
      <point x="447" y="357"/>
      <point x="470" y="377" type="curve"/>
      <point x="464" y="440"/>
      <point x="433" y="482"/>
      <point x="361" y="501" type="curve" smooth="yes"/>
      <point x="327" y="509"/>
      <point x="284" y="513"/>
      <point x="230" y="510" type="curve"/>
      <point x="105" y="460"/>
      <point x="-20" y="356"/>
      <point x="-20" y="259" type="curve" smooth="yes"/>
      <point x="-20" y="183"/>
      <point x="92" y="51"/>
      <point x="200" y="0" type="curve"/>
      <point x="324" y="23"/>
      <point x="363" y="109"/>
      <point x="330" y="158" type="curve"/>
      <point x="241" y="192"/>
      <point x="206" y="226"/>
      <point x="180" y="278" type="curve"/>
      <point x="184" y="325"/>
      <point x="239" y="392"/>
      <point x="264" y="392" type="curve" smooth="yes"/>
      <point x="294" y="392"/>
      <point x="315" y="370"/>
      <point x="322" y="347" type="curve"/>
      <point x="301" y="337"/>
      <point x="281" y="327"/>
      <point x="260" y="317" type="curve"/>
      <point x="249" y="265"/>
      <point x="297" y="206"/>
      <point x="412" y="186" type="curve"/>
      <point x="499" y="257"/>
      <point x="558" y="298"/>
      <point x="621" y="367" type="curve"/>
    </contour>
    <contour>
      <point x="780" y="296" type="line"/>
      <point x="819" y="277"/>
      <point x="912" y="247"/>
      <point x="957" y="247" type="curve" smooth="yes"/>
      <point x="1022" y="247"/>
      <point x="1167" y="305"/>
      <point x="1237" y="368" type="curve"/>
      <point x="1174" y="439" type="line"/>
      <point x="1125" y="386"/>
      <point x="1008" y="333"/>
      <point x="963" y="333" type="curve" smooth="yes"/>
      <point x="929" y="333"/>
      <point x="884" y="342"/>
      <point x="855" y="354" type="curve"/>
    </contour>
    <contour>
      <point x="1457" y="597" type="line"/>
      <point x="1427" y="651"/>
      <point x="1369" y="673"/>
      <point x="1221" y="658" type="curve"/>
      <point x="1152" y="338" type="line"/>
      <point x="1180" y="310" type="line"/>
      <point x="1131" y="245" type="line"/>
      <point x="1092" y="64" type="line"/>
      <point x="1182" y="-5"/>
      <point x="1316" y="-17"/>
      <point x="1355" y="25" type="curve"/>
      <point x="1359" y="419" type="line"/>
    </contour>
    <contour>
      <point x="1582" y="565" type="line"/>
      <point x="1599" y="577"/>
      <point x="1607" y="595"/>
      <point x="1611" y="612" type="curve"/>
      <point x="1599" y="627" type="line"/>
      <point x="472" y="627" type="line"/>
      <point x="455" y="615"/>
      <point x="443" y="597"/>
      <point x="435" y="584" type="curve"/>
      <point x="455" y="565" type="line"/>
    </contour>
    <contour>
      <point x="1049" y="500" type="curve"/>
      <point x="1049" y="549"/>
      <point x="913" y="627"/>
      <point x="816" y="627" type="curve" smooth="yes"/>
      <point x="758" y="627"/>
      <point x="667" y="615"/>
      <point x="595" y="572" type="curve"/>
      <point x="566" y="523"/>
      <point x="612" y="461"/>
      <point x="699" y="433" type="curve"/>
      <point x="749" y="464"/>
      <point x="807" y="486"/>
      <point x="850" y="486" type="curve" smooth="yes"/>
      <point x="864" y="486"/>
      <point x="877" y="484"/>
      <point x="887" y="478" type="curve"/>
      <point x="877" y="420"/>
      <point x="780" y="348"/>
      <point x="657" y="323" type="curve"/>
      <point x="643" y="340"/>
      <point x="630" y="356"/>
      <point x="616" y="373" type="curve"/>
      <point x="545" y="374"/>
      <point x="489" y="316"/>
      <point x="485" y="235" type="curve"/>
      <point x="550" y="132"/>
      <point x="717" y="20"/>
      <point x="868" y="-3" type="curve"/>
      <point x="960" y="37"/>
      <point x="1007" y="149"/>
      <point x="950" y="201" type="curve"/>
      <point x="848" y="206"/>
      <point x="782" y="218"/>
      <point x="695" y="260" type="curve"/>
      <point x="698" y="268" type="line"/>
      <point x="853" y="268"/>
      <point x="1049" y="377"/>
    </contour>
  </outline>
</glyph>
<glyph name="dvL_TTA" format="1">
  <advance width="1096"/>
  <outline>
    <contour>
      <point x="693" y="565" type="line"/>
      <point x="710" y="577"/>
      <point x="718" y="595"/>
      <point x="722" y="612" type="curve"/>
      <point x="710" y="627" type="line"/>
      <point x="3" y="627" type="line"/>
      <point x="-14" y="615"/>
      <point x="-26" y="597"/>
      <point x="-34" y="584" type="curve"/>
      <point x="-14" y="565" type="line"/>
    </contour>
    <contour>
      <point x="572" y="434" type="line"/>
      <point x="512" y="380"/>
      <point x="469" y="349"/>
      <point x="410" y="309" type="curve"/>
      <point x="400" y="316" type="line"/>
      <point x="423" y="336"/>
      <point x="447" y="357"/>
      <point x="470" y="377" type="curve"/>
      <point x="464" y="440"/>
      <point x="433" y="482"/>
      <point x="361" y="501" type="curve" smooth="yes"/>
      <point x="327" y="509"/>
      <point x="284" y="513"/>
      <point x="230" y="510" type="curve"/>
      <point x="105" y="460"/>
      <point x="-20" y="356"/>
      <point x="-20" y="259" type="curve" smooth="yes"/>
      <point x="-20" y="183"/>
      <point x="92" y="51"/>
      <point x="200" y="0" type="curve"/>
      <point x="324" y="23"/>
      <point x="363" y="109"/>
      <point x="330" y="158" type="curve"/>
      <point x="241" y="192"/>
      <point x="206" y="226"/>
      <point x="180" y="278" type="curve"/>
      <point x="184" y="325"/>
      <point x="239" y="392"/>
      <point x="264" y="392" type="curve" smooth="yes"/>
      <point x="294" y="392"/>
      <point x="315" y="370"/>
      <point x="322" y="347" type="curve"/>
      <point x="301" y="337"/>
      <point x="281" y="327"/>
      <point x="260" y="317" type="curve"/>
      <point x="249" y="265"/>
      <point x="297" y="206"/>
      <point x="412" y="186" type="curve"/>
      <point x="499" y="257"/>
      <point x="556" y="304"/>
      <point x="619" y="373" type="curve"/>
    </contour>
    <contour>
      <point x="924" y="276" type="curve"/>
      <point x="891" y="215"/>
      <point x="830" y="149"/>
      <point x="765" y="115" type="curve"/>
      <point x="699" y="144"/>
      <point x="673" y="192"/>
      <point x="673" y="236" type="curve" smooth="yes"/>
      <point x="673" y="263"/>
      <point x="683" y="289"/>
      <point x="701" y="306" type="curve"/>
      <point x="780" y="315"/>
      <point x="850" y="334"/>
      <point x="911" y="358" type="curve"/>
      <point x="962" y="401"/>
      <point x="990" y="481"/>
      <point x="970" y="529" type="curve"/>
      <point x="915" y="570"/>
      <point x="862" y="604"/>
      <point x="783" y="618" type="curve"/>
      <point x="734" y="580" type="line"/>
      <point x="780" y="561"/>
      <point x="825" y="527"/>
      <point x="852" y="505" type="curve"/>
      <point x="847" y="495" type="line"/>
      <point x="773" y="469"/>
      <point x="690" y="450"/>
      <point x="581" y="443" type="curve"/>
      <point x="515" y="387"/>
      <point x="484" y="323"/>
      <point x="484" y="255" type="curve" smooth="yes"/>
      <point x="484" y="161"/>
      <point x="585" y="56"/>
      <point x="741" y="29" type="curve"/>
      <point x="860" y="29"/>
      <point x="970" y="61"/>
      <point x="1063" y="126" type="curve"/>
      <point x="1067" y="240"/>
      <point x="1009" y="286"/>
    </contour>
    <contour>
      <point x="1224" y="565" type="line"/>
      <point x="1241" y="577"/>
      <point x="1249" y="595"/>
      <point x="1253" y="612" type="curve"/>
      <point x="1241" y="627" type="line"/>
      <point x="476" y="627" type="line"/>
      <point x="459" y="615"/>
      <point x="447" y="597"/>
      <point x="439" y="584" type="curve"/>
      <point x="459" y="565" type="line"/>
    </contour>
    <contour>
      <point x="835" y="8" type="move" name="blwm"/>
    </contour>
    <contour>
      <point x="657" y="628" type="move" name="abvm_Ekaar"/>
    </contour>
  </outline>
</glyph>
<glyph name="dvL_TTHA" format="1">
  <advance width="1132"/>
  <outline>
    <contour>
      <point x="693" y="565" type="line"/>
      <point x="710" y="577"/>
      <point x="718" y="595"/>
      <point x="722" y="612" type="curve"/>
      <point x="710" y="627" type="line"/>
      <point x="3" y="627" type="line"/>
      <point x="-14" y="615"/>
      <point x="-26" y="597"/>
      <point x="-34" y="584" type="curve"/>
      <point x="-14" y="565" type="line"/>
    </contour>
    <contour>
      <point x="572" y="434" type="line"/>
      <point x="512" y="380"/>
      <point x="469" y="349"/>
      <point x="410" y="309" type="curve"/>
      <point x="400" y="316" type="line"/>
      <point x="423" y="336"/>
      <point x="447" y="357"/>
      <point x="470" y="377" type="curve"/>
      <point x="464" y="440"/>
      <point x="433" y="482"/>
      <point x="361" y="501" type="curve" smooth="yes"/>
      <point x="327" y="509"/>
      <point x="284" y="513"/>
      <point x="230" y="510" type="curve"/>
      <point x="105" y="460"/>
      <point x="-20" y="356"/>
      <point x="-20" y="259" type="curve" smooth="yes"/>
      <point x="-20" y="183"/>
      <point x="92" y="51"/>
      <point x="200" y="0" type="curve"/>
      <point x="324" y="23"/>
      <point x="363" y="109"/>
      <point x="330" y="158" type="curve"/>
      <point x="241" y="192"/>
      <point x="206" y="226"/>
      <point x="180" y="278" type="curve"/>
      <point x="184" y="325"/>
      <point x="239" y="392"/>
      <point x="264" y="392" type="curve" smooth="yes"/>
      <point x="294" y="392"/>
      <point x="315" y="370"/>
      <point x="322" y="347" type="curve"/>
      <point x="301" y="337"/>
      <point x="281" y="327"/>
      <point x="260" y="317" type="curve"/>
      <point x="249" y="265"/>
      <point x="297" y="206"/>
      <point x="412" y="186" type="curve"/>
      <point x="499" y="257"/>
      <point x="556" y="304"/>
      <point x="619" y="373" type="curve"/>
    </contour>
    <contour>
      <point x="1260" y="565" type="line"/>
      <point x="1277" y="577"/>
      <point x="1285" y="595"/>
      <point x="1289" y="612" type="curve"/>
      <point x="1277" y="627" type="line"/>
      <point x="476" y="627" type="line"/>
      <point x="459" y="615"/>
      <point x="447" y="597"/>
      <point x="439" y="584" type="curve"/>
      <point x="459" y="565" type="line"/>
    </contour>
    <contour>
      <point x="784" y="618" type="curve"/>
      <point x="735" y="580" type="line"/>
      <point x="781" y="561"/>
      <point x="826" y="527"/>
      <point x="853" y="505" type="curve"/>
      <point x="848" y="495" type="line"/>
      <point x="792" y="474"/>
      <point x="703" y="453"/>
      <point x="582" y="443" type="curve"/>
      <point x="516" y="387"/>
      <point x="485" y="329"/>
      <point x="485" y="255" type="curve" smooth="yes"/>
      <point x="485" y="156"/>
      <point x="589" y="56"/>
      <point x="749" y="27" type="curve"/>
      <point x="996" y="27"/>
      <point x="1132" y="187"/>
      <point x="1117" y="330" type="curve"/>
      <point x="1060" y="370"/>
      <point x="965" y="412"/>
      <point x="902" y="426" type="curve"/>
      <point x="851" y="379" type="line"/>
      <point x="886" y="363"/>
      <point x="925" y="336"/>
      <point x="944" y="305" type="curve"/>
      <point x="939" y="223"/>
      <point x="876" y="143"/>
      <point x="765" y="107" type="curve"/>
      <point x="693" y="141"/>
      <point x="668" y="188"/>
      <point x="668" y="230" type="curve" smooth="yes"/>
      <point x="668" y="262"/>
      <point x="683" y="290"/>
      <point x="702" y="306" type="curve"/>
      <point x="781" y="315"/>
      <point x="851" y="334"/>
      <point x="912" y="358" type="curve"/>
      <point x="963" y="401"/>
      <point x="991" y="481"/>
      <point x="971" y="529" type="curve"/>
      <point x="916" y="570"/>
      <point x="863" y="604"/>
    </contour>
    <contour>
      <point x="859" y="8" type="move" name="blwm"/>
    </contour>
    <contour>
      <point x="681" y="628" type="move" name="abvm_Ekaar"/>
    </contour>
  </outline>
</glyph>
<glyph name="dvL_VA" format="1">
  <advance width="1180"/>
  <outline>
    <contour>
      <point x="693" y="565" type="line"/>
      <point x="710" y="577"/>
      <point x="718" y="595"/>
      <point x="722" y="612" type="curve"/>
      <point x="710" y="627" type="line"/>
      <point x="3" y="627" type="line"/>
      <point x="-14" y="615"/>
      <point x="-26" y="597"/>
      <point x="-34" y="584" type="curve"/>
      <point x="-14" y="565" type="line"/>
    </contour>
    <contour>
      <point x="572" y="434" type="line"/>
      <point x="512" y="380"/>
      <point x="469" y="349"/>
      <point x="410" y="309" type="curve"/>
      <point x="400" y="316" type="line"/>
      <point x="423" y="336"/>
      <point x="447" y="357"/>
      <point x="470" y="377" type="curve"/>
      <point x="464" y="440"/>
      <point x="433" y="482"/>
      <point x="361" y="501" type="curve" smooth="yes"/>
      <point x="327" y="509"/>
      <point x="284" y="513"/>
      <point x="230" y="510" type="curve"/>
      <point x="105" y="460"/>
      <point x="-20" y="356"/>
      <point x="-20" y="259" type="curve" smooth="yes"/>
      <point x="-20" y="183"/>
      <point x="92" y="51"/>
      <point x="200" y="0" type="curve"/>
      <point x="324" y="23"/>
      <point x="363" y="109"/>
      <point x="330" y="158" type="curve"/>
      <point x="241" y="192"/>
      <point x="206" y="226"/>
      <point x="180" y="278" type="curve"/>
      <point x="184" y="325"/>
      <point x="239" y="392"/>
      <point x="264" y="392" type="curve" smooth="yes"/>
      <point x="294" y="392"/>
      <point x="315" y="370"/>
      <point x="322" y="347" type="curve"/>
      <point x="301" y="337"/>
      <point x="281" y="327"/>
      <point x="260" y="317" type="curve"/>
      <point x="249" y="265"/>
      <point x="297" y="206"/>
      <point x="412" y="186" type="curve"/>
      <point x="499" y="257"/>
      <point x="556" y="304"/>
      <point x="619" y="373" type="curve"/>
    </contour>
    <contour>
      <point x="1308" y="565" type="line"/>
      <point x="1325" y="577"/>
      <point x="1333" y="595"/>
      <point x="1337" y="612" type="curve"/>
      <point x="1325" y="627" type="line"/>
      <point x="449" y="627" type="line"/>
      <point x="432" y="615"/>
      <point x="420" y="597"/>
      <point x="412" y="584" type="curve"/>
      <point x="432" y="565" type="line"/>
    </contour>
    <contour>
      <point x="886" y="322" type="line"/>
      <point x="837" y="282"/>
      <point x="777" y="235"/>
      <point x="732" y="201" type="curve"/>
      <point x="709" y="213"/>
      <point x="697" y="235"/>
      <point x="697" y="268" type="curve" smooth="yes"/>
      <point x="697" y="316"/>
      <point x="739" y="378"/>
      <point x="811" y="412" type="curve"/>
      <point x="836" y="393"/>
      <point x="866" y="362"/>
      <point x="890" y="336" type="curve"/>
      <point x="945" y="379" type="line"/>
      <point x="905" y="431"/>
      <point x="817" y="527"/>
      <point x="795" y="525" type="curve"/>
      <point x="638" y="525"/>
      <point x="477" y="386"/>
      <point x="477" y="253" type="curve" smooth="yes"/>
      <point x="477" y="151"/>
      <point x="582" y="87"/>
      <point x="723" y="87" type="curve"/>
      <point x="780" y="140"/>
      <point x="877" y="228"/>
      <point x="926" y="275" type="curve"/>
    </contour>
    <contour>
      <point x="1183" y="597" type="line"/>
      <point x="1153" y="651"/>
      <point x="1095" y="673"/>
      <point x="947" y="658" type="curve"/>
      <point x="915" y="428" type="line"/>
      <point x="893" y="410" type="line"/>
      <point x="894" y="353" type="line"/>
      <point x="868" y="245" type="line"/>
      <point x="887" y="216" type="line"/>
      <point x="838" y="150" type="line"/>
      <point x="818" y="64" type="line"/>
      <point x="908" y="-5"/>
      <point x="1042" y="-17"/>
      <point x="1081" y="25" type="curve"/>
      <point x="1085" y="419" type="line"/>
    </contour>
  </outline>
</glyph>
<glyph name="dvNN" format="1">
  <advance width="532"/>
  <outline>
    <contour>
      <point x="689" y="612" type="curve"/>
      <point x="677" y="627" type="line"/>
      <point x="232" y="627" type="line"/>
      <point x="97" y="550"/>
      <point x="36" y="434"/>
      <point x="36" y="359" type="curve" smooth="yes"/>
      <point x="36" y="258"/>
      <point x="144" y="114"/>
      <point x="247" y="114" type="curve" smooth="yes"/>
      <point x="366" y="114"/>
      <point x="547" y="244"/>
      <point x="547" y="391" type="curve" smooth="yes"/>
      <point x="547" y="442"/>
      <point x="525" y="498"/>
      <point x="494" y="565" type="curve"/>
      <point x="660" y="565" type="line"/>
      <point x="677" y="577"/>
      <point x="685" y="595"/>
    </contour>
    <contour>
      <point x="328" y="565" type="line"/>
      <point x="355" y="479"/>
      <point x="362" y="421"/>
      <point x="362" y="381" type="curve" smooth="yes"/>
      <point x="362" y="321"/>
      <point x="306" y="243"/>
      <point x="272" y="243" type="curve" smooth="yes"/>
      <point x="250" y="243"/>
      <point x="230" y="312"/>
      <point x="230" y="345" type="curve" smooth="yes"/>
      <point x="230" y="408"/>
      <point x="273" y="500"/>
      <point x="313" y="565" type="curve"/>
    </contour>
  </outline>
</glyph>
<glyph name="dvNN_DDA" format="1">
  <advance width="1122"/>
  <outline>
    <contour>
      <point x="689" y="612" type="curve"/>
      <point x="677" y="627" type="line"/>
      <point x="232" y="627" type="line"/>
      <point x="97" y="550"/>
      <point x="36" y="434"/>
      <point x="36" y="359" type="curve" smooth="yes"/>
      <point x="36" y="258"/>
      <point x="144" y="114"/>
      <point x="247" y="114" type="curve" smooth="yes"/>
      <point x="366" y="114"/>
      <point x="547" y="244"/>
      <point x="547" y="391" type="curve" smooth="yes"/>
      <point x="547" y="442"/>
      <point x="525" y="498"/>
      <point x="494" y="565" type="curve"/>
      <point x="660" y="565" type="line"/>
      <point x="677" y="577"/>
      <point x="685" y="595"/>
    </contour>
    <contour>
      <point x="328" y="565" type="line"/>
      <point x="355" y="479"/>
      <point x="362" y="421"/>
      <point x="362" y="381" type="curve" smooth="yes"/>
      <point x="362" y="321"/>
      <point x="306" y="243"/>
      <point x="272" y="243" type="curve" smooth="yes"/>
      <point x="250" y="243"/>
      <point x="230" y="312"/>
      <point x="230" y="345" type="curve" smooth="yes"/>
      <point x="230" y="408"/>
      <point x="273" y="500"/>
      <point x="313" y="565" type="curve"/>
    </contour>
    <contour>
      <point x="1248" y="565" type="line"/>
      <point x="1265" y="577"/>
      <point x="1273" y="595"/>
      <point x="1277" y="612" type="curve"/>
      <point x="1265" y="627" type="line"/>
      <point x="535" y="627" type="line"/>
      <point x="518" y="615"/>
      <point x="506" y="597"/>
      <point x="498" y="584" type="curve"/>
      <point x="518" y="565" type="line"/>
    </contour>
    <contour>
      <point x="861" y="618" type="curve"/>
      <point x="812" y="580" type="line"/>
      <point x="858" y="561"/>
      <point x="903" y="547"/>
      <point x="930" y="525" type="curve"/>
      <point x="925" y="515" type="line"/>
      <point x="861" y="498"/>
      <point x="795" y="490"/>
      <point x="703" y="485" type="curve"/>
      <point x="608" y="427"/>
      <point x="572" y="333"/>
      <point x="613" y="274" type="curve"/>
      <point x="710" y="253"/>
      <point x="795" y="241"/>
      <point x="886" y="222" type="curve"/>
      <point x="889" y="213" type="line"/>
      <point x="823" y="181"/>
      <point x="680" y="168"/>
      <point x="568" y="178" type="curve"/>
      <point x="523" y="140"/>
      <point x="531" y="61"/>
      <point x="605" y="0" type="curve"/>
      <point x="764" y="0"/>
      <point x="947" y="45"/>
      <point x="1021" y="87" type="curve"/>
      <point x="1079" y="190"/>
      <point x="1074" y="251"/>
      <point x="1022" y="283" type="curve"/>
      <point x="942" y="294"/>
      <point x="841" y="307"/>
      <point x="770" y="322" type="curve"/>
      <point x="776" y="341" type="line"/>
      <point x="857" y="345"/>
      <point x="930" y="360"/>
      <point x="989" y="378" type="curve"/>
      <point x="1040" y="421"/>
      <point x="1068" y="501"/>
      <point x="1048" y="549" type="curve"/>
      <point x="993" y="590"/>
      <point x="940" y="604"/>
    </contour>
    <contour>
      <point x="845" y="8" type="move" name="blwm"/>
    </contour>
    <contour>
      <point x="715" y="628" type="move" name="abvm_Ekaar"/>
    </contour>
  </outline>
</glyph>
<glyph name="dvNN_VA" format="1">
  <advance width="1266"/>
  <outline>
    <contour>
      <point x="689" y="612" type="curve"/>
      <point x="677" y="627" type="line"/>
      <point x="232" y="627" type="line"/>
      <point x="97" y="550"/>
      <point x="36" y="434"/>
      <point x="36" y="359" type="curve" smooth="yes"/>
      <point x="36" y="258"/>
      <point x="144" y="114"/>
      <point x="247" y="114" type="curve" smooth="yes"/>
      <point x="366" y="114"/>
      <point x="547" y="244"/>
      <point x="547" y="391" type="curve" smooth="yes"/>
      <point x="547" y="442"/>
      <point x="525" y="498"/>
      <point x="494" y="565" type="curve"/>
      <point x="660" y="565" type="line"/>
      <point x="677" y="577"/>
      <point x="685" y="595"/>
    </contour>
    <contour>
      <point x="328" y="565" type="line"/>
      <point x="355" y="479"/>
      <point x="362" y="421"/>
      <point x="362" y="381" type="curve" smooth="yes"/>
      <point x="362" y="321"/>
      <point x="306" y="243"/>
      <point x="272" y="243" type="curve" smooth="yes"/>
      <point x="250" y="243"/>
      <point x="230" y="312"/>
      <point x="230" y="345" type="curve" smooth="yes"/>
      <point x="230" y="408"/>
      <point x="273" y="500"/>
      <point x="313" y="565" type="curve"/>
    </contour>
    <contour>
      <point x="1393" y="565" type="line"/>
      <point x="1410" y="577"/>
      <point x="1418" y="595"/>
      <point x="1422" y="612" type="curve"/>
      <point x="1410" y="627" type="line"/>
      <point x="534" y="627" type="line"/>
      <point x="517" y="615"/>
      <point x="505" y="597"/>
      <point x="497" y="584" type="curve"/>
      <point x="517" y="565" type="line"/>
    </contour>
    <contour>
      <point x="971" y="322" type="line"/>
      <point x="922" y="282"/>
      <point x="862" y="235"/>
      <point x="817" y="201" type="curve"/>
      <point x="794" y="213"/>
      <point x="782" y="235"/>
      <point x="782" y="268" type="curve" smooth="yes"/>
      <point x="782" y="316"/>
      <point x="824" y="378"/>
      <point x="896" y="412" type="curve"/>
      <point x="921" y="393"/>
      <point x="951" y="362"/>
      <point x="975" y="336" type="curve"/>
      <point x="1030" y="379" type="line"/>
      <point x="990" y="431"/>
      <point x="902" y="527"/>
      <point x="880" y="525" type="curve"/>
      <point x="723" y="525"/>
      <point x="562" y="386"/>
      <point x="562" y="253" type="curve" smooth="yes"/>
      <point x="562" y="151"/>
      <point x="667" y="87"/>
      <point x="808" y="87" type="curve"/>
      <point x="865" y="140"/>
      <point x="962" y="228"/>
      <point x="1011" y="275" type="curve"/>
    </contour>
    <contour>
      <point x="1268" y="597" type="line"/>
      <point x="1238" y="651"/>
      <point x="1180" y="673"/>
      <point x="1032" y="658" type="curve"/>
      <point x="1000" y="428" type="line"/>
      <point x="978" y="410" type="line"/>
      <point x="979" y="353" type="line"/>
      <point x="953" y="245" type="line"/>
      <point x="972" y="216" type="line"/>
      <point x="923" y="150" type="line"/>
      <point x="903" y="64" type="line"/>
      <point x="993" y="-5"/>
      <point x="1127" y="-17"/>
      <point x="1166" y="25" type="curve"/>
      <point x="1170" y="419" type="line"/>
    </contour>
  </outline>
</glyph>
<glyph name="dvP_SHA" format="1">
  <advance width="1285"/>
  <outline>
    <contour>
      <point x="506" y="565" type="line"/>
      <point x="523" y="577"/>
      <point x="531" y="595"/>
      <point x="535" y="612" type="curve"/>
      <point x="523" y="627" type="line"/>
      <point x="2" y="627" type="line"/>
      <point x="-15" y="615"/>
      <point x="-27" y="597"/>
      <point x="-35" y="584" type="curve"/>
      <point x="-15" y="565" type="line"/>
    </contour>
    <contour>
      <point x="142" y="603" type="curve"/>
      <point x="85" y="472"/>
      <point x="57" y="378"/>
      <point x="36" y="248" type="curve"/>
      <point x="42" y="171"/>
      <point x="142" y="129"/>
      <point x="255" y="123" type="curve"/>
      <point x="338" y="193"/>
      <point x="386" y="228"/>
      <point x="471" y="302" type="curve"/>
      <point x="428" y="350" type="line"/>
      <point x="356" y="292"/>
      <point x="299" y="268"/>
      <point x="239" y="242" type="curve"/>
      <point x="228" y="247" type="line"/>
      <point x="243" y="340"/>
      <point x="269" y="412"/>
      <point x="295" y="480" type="curve"/>
      <point x="371" y="578" type="line"/>
      <point x="295" y="586"/>
      <point x="218" y="595"/>
    </contour>
    <contour>
      <point x="1288" y="597" type="line"/>
      <point x="1258" y="651"/>
      <point x="1200" y="673"/>
      <point x="1052" y="658" type="curve"/>
      <point x="923" y="64" type="line"/>
      <point x="1013" y="-5"/>
      <point x="1147" y="-17"/>
      <point x="1186" y="25" type="curve"/>
      <point x="1190" y="419" type="line"/>
    </contour>
    <contour>
      <point x="1413" y="565" type="line"/>
      <point x="1430" y="577"/>
      <point x="1438" y="595"/>
      <point x="1442" y="612" type="curve"/>
      <point x="1430" y="627" type="line"/>
      <point x="978" y="627" type="line"/>
      <point x="961" y="615"/>
      <point x="949" y="597"/>
      <point x="941" y="584" type="curve"/>
      <point x="961" y="565" type="line"/>
    </contour>
    <contour>
      <point x="741" y="529" type="curve"/>
      <point x="741" y="444"/>
      <point x="665" y="348"/>
      <point x="542" y="323" type="curve"/>
      <point x="528" y="340"/>
      <point x="515" y="356"/>
      <point x="501" y="373" type="curve"/>
      <point x="430" y="374"/>
      <point x="374" y="316"/>
      <point x="370" y="235" type="curve"/>
      <point x="430" y="141"/>
      <point x="575" y="34"/>
      <point x="734" y="-3" type="curve"/>
      <point x="826" y="37"/>
      <point x="873" y="149"/>
      <point x="816" y="201" type="curve"/>
      <point x="703" y="205"/>
      <point x="657" y="217"/>
      <point x="580" y="260" type="curve"/>
      <point x="583" y="268" type="line"/>
      <point x="738" y="268"/>
      <point x="913" y="413"/>
      <point x="913" y="533" type="curve" smooth="yes"/>
      <point x="913" y="611"/>
      <point x="824" y="728"/>
      <point x="718" y="761" type="curve"/>
      <point x="604" y="749"/>
      <point x="493" y="669"/>
      <point x="469" y="577" type="curve"/>
      <point x="484" y="520"/>
      <point x="519" y="474"/>
      <point x="569" y="437" type="curve"/>
      <point x="771" y="403" type="line"/>
      <point x="781" y="449" type="line"/>
      <point x="662" y="490" type="line"/>
      <point x="641" y="515"/>
      <point x="633" y="537"/>
      <point x="633" y="554" type="curve" smooth="yes"/>
      <point x="633" y="582"/>
      <point x="656" y="614"/>
      <point x="686" y="625" type="curve"/>
      <point x="723" y="599"/>
      <point x="741" y="564"/>
    </contour>
  </outline>
</glyph>
<glyph name="dvTTH_NA" format="1">
  <advance width="600"/>
  <outline>
    <contour>
      <point x="750" y="565" type="line"/>
      <point x="767" y="577"/>
      <point x="775" y="595"/>
      <point x="779" y="612" type="curve"/>
      <point x="767" y="627" type="line"/>
      <point x="2" y="627" type="line"/>
      <point x="-15" y="615"/>
      <point x="-27" y="597"/>
      <point x="-35" y="584" type="curve"/>
      <point x="-15" y="565" type="line"/>
    </contour>
    <contour>
      <point x="316" y="625" type="curve"/>
      <point x="260" y="584" type="line"/>
      <point x="302" y="570"/>
      <point x="352" y="546"/>
      <point x="377" y="526" type="curve"/>
      <point x="373" y="518" type="line"/>
      <point x="311" y="497"/>
      <point x="227" y="484"/>
      <point x="138" y="480" type="curve"/>
      <point x="79" y="431"/>
      <point x="44" y="380"/>
      <point x="44" y="314" type="curve" smooth="yes"/>
      <point x="44" y="223"/>
      <point x="141" y="141"/>
      <point x="283" y="116" type="curve"/>
      <point x="503" y="115"/>
      <point x="614" y="249"/>
      <point x="597" y="380" type="curve"/>
      <point x="547" y="416"/>
      <point x="470" y="454"/>
      <point x="414" y="465" type="curve"/>
      <point x="358" y="415" type="line"/>
      <point x="390" y="401"/>
      <point x="419" y="378"/>
      <point x="437" y="351" type="curve"/>
      <point x="433" y="291"/>
      <point x="394" y="238"/>
      <point x="301" y="205" type="curve"/>
      <point x="241" y="225"/>
      <point x="217" y="262"/>
      <point x="217" y="295" type="curve" smooth="yes"/>
      <point x="217" y="317"/>
      <point x="228" y="337"/>
      <point x="246" y="349" type="curve"/>
      <point x="315" y="357"/>
      <point x="373" y="370"/>
      <point x="427" y="392" type="curve"/>
      <point x="486" y="430"/>
      <point x="509" y="502"/>
      <point x="488" y="547" type="curve"/>
      <point x="438" y="583"/>
      <point x="387" y="613"/>
    </contour>
    <contour>
      <point x="371" y="177" type="line"/>
      <point x="333" y="1" type="line"/>
      <point x="358" y="-40" type="line"/>
      <point x="316" y="-72" type="line"/>
      <point x="259" y="-282" type="line"/>
      <point x="332" y="-338"/>
      <point x="437" y="-349"/>
      <point x="470" y="-313" type="curve"/>
      <point x="458" y="0" type="line"/>
      <point x="536" y="206" type="line"/>
    </contour>
    <contour>
      <point x="120" y="-78" type="line"/>
      <point x="140" y="-110"/>
      <point x="148" y="-152"/>
      <point x="141" y="-186" type="curve"/>
      <point x="133" y="-191" type="line"/>
      <point x="98" y="-180"/>
      <point x="79" y="-155"/>
      <point x="61" y="-121" type="curve"/>
      <point x="52" y="-139" type="line"/>
      <point x="177" y="-86"/>
      <point x="302" y="-48"/>
      <point x="416" y="2" type="curve"/>
      <point x="390" y="66" type="line"/>
      <point x="294" y="25"/>
      <point x="185" y="-21"/>
      <point x="18" y="-58" type="curve"/>
      <point x="-10" y="-81"/>
      <point x="-31" y="-116"/>
      <point x="-35" y="-154" type="curve"/>
      <point x="-7" y="-220"/>
      <point x="35" y="-245"/>
      <point x="106" y="-262" type="curve"/>
      <point x="193" y="-251"/>
      <point x="218" y="-232"/>
      <point x="240" y="-198" type="curve"/>
      <point x="258" y="-139"/>
      <point x="255" y="-76"/>
      <point x="227" y="-29" type="curve"/>
    </contour>
    <contour>
      <point x="332" y="-293" type="move" name="blwm"/>
    </contour>
    <contour>
      <point x="255" y="628" type="move" name="abvm_Ekaar"/>
    </contour>
  </outline>
</glyph>
<glyph name="dvTT_NA" format="1">
  <advance width="658"/>
  <outline>
    <contour>
      <point x="808" y="565" type="line"/>
      <point x="825" y="577"/>
      <point x="833" y="595"/>
      <point x="837" y="612" type="curve"/>
      <point x="825" y="627" type="line"/>
      <point x="-17" y="627" type="line"/>
      <point x="-34" y="615"/>
      <point x="-46" y="597"/>
      <point x="-54" y="584" type="curve"/>
      <point x="-34" y="565" type="line"/>
    </contour>
    <contour>
      <point x="504" y="293" type="curve"/>
      <point x="470" y="240"/>
      <point x="406" y="184"/>
      <point x="350" y="153" type="curve"/>
      <point x="292" y="178"/>
      <point x="279" y="243"/>
      <point x="279" y="279" type="curve"/>
      <point x="279" y="301"/>
      <point x="286" y="320"/>
      <point x="301" y="335" type="curve"/>
      <point x="375" y="342"/>
      <point x="440" y="360"/>
      <point x="499" y="382" type="curve"/>
      <point x="548" y="421"/>
      <point x="578" y="497"/>
      <point x="556" y="543" type="curve"/>
      <point x="502" y="581"/>
      <point x="451" y="613"/>
      <point x="374" y="625" type="curve"/>
      <point x="315" y="581" type="line"/>
      <point x="360" y="567"/>
      <point x="411" y="542"/>
      <point x="438" y="520" type="curve"/>
      <point x="434" y="512" type="line"/>
      <point x="354" y="487"/>
      <point x="279" y="476"/>
      <point x="184" y="472" type="curve"/>
      <point x="120" y="421"/>
      <point x="89" y="359"/>
      <point x="89" y="296" type="curve"/>
      <point x="89" y="208"/>
      <point x="179" y="84"/>
      <point x="328" y="60" type="curve"/>
      <point x="450" y="63"/>
      <point x="563" y="90"/>
      <point x="644" y="147" type="curve"/>
      <point x="650" y="257"/>
      <point x="588" y="304"/>
    </contour>
    <contour>
      <point x="421" y="177" type="line"/>
      <point x="377" y="-13" type="line"/>
      <point x="402" y="-54" type="line"/>
      <point x="360" y="-86" type="line"/>
      <point x="309" y="-282" type="line"/>
      <point x="382" y="-338"/>
      <point x="487" y="-349"/>
      <point x="520" y="-313" type="curve"/>
      <point x="508" y="0" type="line"/>
      <point x="586" y="206" type="line"/>
    </contour>
    <contour>
      <point x="164" y="-92" type="line"/>
      <point x="184" y="-124"/>
      <point x="192" y="-166"/>
      <point x="185" y="-200" type="curve"/>
      <point x="177" y="-205" type="line"/>
      <point x="142" y="-194"/>
      <point x="123" y="-169"/>
      <point x="105" y="-135" type="curve"/>
      <point x="96" y="-153" type="line"/>
      <point x="221" y="-100"/>
      <point x="346" y="-62"/>
      <point x="460" y="-12" type="curve"/>
      <point x="434" y="52" type="line"/>
      <point x="338" y="11"/>
      <point x="229" y="-35"/>
      <point x="62" y="-72" type="curve"/>
      <point x="34" y="-95"/>
      <point x="13" y="-130"/>
      <point x="9" y="-168" type="curve"/>
      <point x="37" y="-234"/>
      <point x="79" y="-259"/>
      <point x="150" y="-276" type="curve"/>
      <point x="237" y="-265"/>
      <point x="262" y="-246"/>
      <point x="284" y="-212" type="curve"/>
      <point x="302" y="-153"/>
      <point x="299" y="-90"/>
      <point x="271" y="-43" type="curve"/>
    </contour>
    <contour>
      <point x="381" y="-293" type="move" name="blwm"/>
    </contour>
    <contour>
      <point x="274" y="628" type="move" name="abvm_Ekaar"/>
    </contour>
  </outline>
</glyph>
<glyph name="dvT_KH_NA" format="1">
  <advance width="1868"/>
  <outline>
    <contour>
      <point x="591" y="565" type="line"/>
      <point x="608" y="577"/>
      <point x="616" y="595"/>
      <point x="620" y="612" type="curve"/>
      <point x="608" y="627" type="line"/>
      <point x="3" y="627" type="line"/>
      <point x="-14" y="615"/>
      <point x="-26" y="597"/>
      <point x="-34" y="584" type="curve"/>
      <point x="-14" y="565" type="line"/>
    </contour>
    <contour>
      <point x="490" y="373" type="line"/>
      <point x="389" y="398"/>
      <point x="211" y="401"/>
      <point x="108" y="376" type="curve"/>
      <point x="57" y="354"/>
      <point x="36" y="306"/>
      <point x="13" y="217" type="curve"/>
      <point x="36" y="148"/>
      <point x="113" y="63"/>
      <point x="211" y="0" type="curve"/>
      <point x="268" y="23"/>
      <point x="297" y="54"/>
      <point x="292" y="93" type="curve"/>
      <point x="246" y="147"/>
      <point x="226" y="177"/>
      <point x="210" y="222" type="curve"/>
      <point x="212" y="236"/>
      <point x="218" y="249"/>
      <point x="226" y="259" type="curve"/>
      <point x="266" y="277"/>
      <point x="372" y="304"/>
      <point x="445" y="291" type="curve"/>
    </contour>
    <contour>
      <point x="1267" y="565" type="line"/>
      <point x="1284" y="577"/>
      <point x="1292" y="595"/>
      <point x="1296" y="612" type="curve"/>
      <point x="1284" y="627" type="line"/>
      <point x="346" y="627" type="line"/>
      <point x="329" y="615"/>
      <point x="317" y="597"/>
      <point x="309" y="584" type="curve"/>
      <point x="329" y="565" type="line"/>
    </contour>
    <contour>
      <point x="1028" y="250" type="curve"/>
      <point x="1004" y="250"/>
      <point x="985" y="272"/>
      <point x="985" y="302" type="curve" smooth="yes"/>
      <point x="985" y="347"/>
      <point x="1023" y="393"/>
      <point x="1076" y="417" type="curve"/>
      <point x="1099" y="402"/>
      <point x="1112" y="376"/>
      <point x="1116" y="338" type="curve"/>
      <point x="1112" y="324" type="line"/>
      <point x="1098" y="288"/>
      <point x="1057" y="250"/>
    </contour>
    <contour>
      <point x="1184" y="327" type="line"/>
      <point x="1174" y="410"/>
      <point x="1112" y="525"/>
      <point x="1055" y="525" type="curve" smooth="yes"/>
      <point x="938" y="525"/>
      <point x="814" y="388"/>
      <point x="814" y="292" type="curve" smooth="yes"/>
      <point x="814" y="246"/>
      <point x="843" y="209"/>
      <point x="917" y="203" type="curve"/>
      <point x="922" y="198" type="line"/>
      <point x="868" y="182"/>
      <point x="801" y="163"/>
      <point x="728" y="157" type="curve"/>
      <point x="659" y="185"/>
      <point x="612" y="214"/>
      <point x="569" y="260" type="curve"/>
      <point x="572" y="268" type="line"/>
      <point x="729" y="296"/>
      <point x="866" y="381"/>
      <point x="866" y="500" type="curve" smooth="yes"/>
      <point x="866" y="549"/>
      <point x="744" y="627"/>
      <point x="667" y="627" type="curve" smooth="yes"/>
      <point x="587" y="627"/>
      <point x="504" y="601"/>
      <point x="469" y="572" type="curve"/>
      <point x="440" y="523"/>
      <point x="486" y="461"/>
      <point x="573" y="433" type="curve"/>
      <point x="605" y="461"/>
      <point x="649" y="482"/>
      <point x="683" y="482" type="curve" smooth="yes"/>
      <point x="692" y="482"/>
      <point x="700" y="481"/>
      <point x="707" y="478" type="curve"/>
      <point x="703" y="410"/>
      <point x="637" y="354"/>
      <point x="528" y="327" type="curve"/>
      <point x="490" y="373" type="line"/>
      <point x="419" y="374"/>
      <point x="354" y="311"/>
      <point x="350" y="230" type="curve"/>
      <point x="408" y="127"/>
      <point x="555" y="46"/>
      <point x="679" y="23" type="curve"/>
      <point x="866" y="49"/>
      <point x="1111" y="186"/>
      <point x="1168" y="271" type="curve"/>
    </contour>
    <contour>
      <point x="1996" y="565" type="line"/>
      <point x="2013" y="577"/>
      <point x="2021" y="595"/>
      <point x="2025" y="612" type="curve"/>
      <point x="2013" y="627" type="line"/>
      <point x="1062" y="627" type="line"/>
      <point x="1045" y="615"/>
      <point x="1033" y="597"/>
      <point x="1025" y="584" type="curve"/>
      <point x="1045" y="565" type="line"/>
    </contour>
    <contour>
      <point x="1839" y="453" type="line"/>
      <point x="1809" y="507"/>
      <point x="1751" y="529"/>
      <point x="1603" y="514" type="curve"/>
      <point x="1569" y="421" type="line"/>
      <point x="1580" y="414" type="line"/>
      <point x="1501" y="64" type="line"/>
      <point x="1591" y="-5"/>
      <point x="1725" y="-17"/>
      <point x="1764" y="25" type="curve"/>
      <point x="1752" y="337" type="line"/>
    </contour>
    <contour>
      <point x="1253" y="329" type="line"/>
      <point x="1282" y="284"/>
      <point x="1292" y="229"/>
      <point x="1277" y="183" type="curve"/>
      <point x="1265" y="177" type="line"/>
      <point x="1221" y="202"/>
      <point x="1206" y="225"/>
      <point x="1187" y="269" type="curve"/>
      <point x="1171" y="246" type="line"/>
      <point x="1290" y="304"/>
      <point x="1474" y="374"/>
      <point x="1627" y="448" type="curve"/>
      <point x="1603" y="514" type="line"/>
      <point x="1473" y="450"/>
      <point x="1250" y="359"/>
      <point x="1125" y="324" type="curve"/>
      <point x="1087" y="300"/>
      <point x="1069" y="247"/>
      <point x="1080" y="181" type="curve"/>
      <point x="1120" y="127"/>
      <point x="1187" y="92"/>
      <point x="1271" y="72" type="curve"/>
      <point x="1335" y="69"/>
      <point x="1426" y="99"/>
      <point x="1444" y="145" type="curve"/>
      <point x="1468" y="216"/>
      <point x="1473" y="312"/>
      <point x="1446" y="392" type="curve"/>
    </contour>
  </outline>
</glyph>
<glyph name="dvT_T_VA" format="1">
  <advance width="1452"/>
  <outline>
    <contour>
      <point x="591" y="565" type="line"/>
      <point x="608" y="577"/>
      <point x="616" y="595"/>
      <point x="620" y="612" type="curve"/>
      <point x="608" y="627" type="line"/>
      <point x="3" y="627" type="line"/>
      <point x="-14" y="615"/>
      <point x="-26" y="597"/>
      <point x="-34" y="584" type="curve"/>
      <point x="-14" y="565" type="line"/>
    </contour>
    <contour>
      <point x="492" y="376" type="line"/>
      <point x="389" y="402"/>
      <point x="210" y="402"/>
      <point x="108" y="376" type="curve"/>
      <point x="57" y="354"/>
      <point x="36" y="306"/>
      <point x="13" y="217" type="curve"/>
      <point x="36" y="148"/>
      <point x="113" y="63"/>
      <point x="211" y="0" type="curve"/>
      <point x="268" y="23"/>
      <point x="297" y="54"/>
      <point x="292" y="93" type="curve"/>
      <point x="246" y="147"/>
      <point x="226" y="177"/>
      <point x="210" y="222" type="curve"/>
      <point x="212" y="236"/>
      <point x="218" y="249"/>
      <point x="226" y="259" type="curve"/>
      <point x="261" y="277"/>
      <point x="367" y="307"/>
      <point x="447" y="294" type="curve"/>
    </contour>
    <contour>
      <point x="975" y="565" type="line"/>
      <point x="992" y="577"/>
      <point x="1000" y="595"/>
      <point x="1004" y="612" type="curve"/>
      <point x="992" y="627" type="line"/>
      <point x="387" y="627" type="line"/>
      <point x="370" y="615"/>
      <point x="358" y="597"/>
      <point x="350" y="584" type="curve"/>
      <point x="370" y="565" type="line"/>
    </contour>
    <contour>
      <point x="880" y="462" type="line"/>
      <point x="782" y="405"/>
      <point x="605" y="371"/>
      <point x="492" y="376" type="curve"/>
      <point x="441" y="354"/>
      <point x="420" y="306"/>
      <point x="397" y="217" type="curve"/>
      <point x="420" y="148"/>
      <point x="497" y="63"/>
      <point x="595" y="0" type="curve"/>
      <point x="652" y="23"/>
      <point x="681" y="54"/>
      <point x="676" y="93" type="curve"/>
      <point x="630" y="147"/>
      <point x="610" y="177"/>
      <point x="594" y="222" type="curve"/>
      <point x="596" y="236"/>
      <point x="602" y="249"/>
      <point x="610" y="259" type="curve"/>
      <point x="674" y="278"/>
      <point x="819" y="324"/>
      <point x="915" y="390" type="curve"/>
    </contour>
    <contour>
      <point x="1580" y="565" type="line"/>
      <point x="1597" y="577"/>
      <point x="1605" y="595"/>
      <point x="1609" y="612" type="curve"/>
      <point x="1597" y="627" type="line"/>
      <point x="721" y="627" type="line"/>
      <point x="704" y="615"/>
      <point x="692" y="597"/>
      <point x="684" y="584" type="curve"/>
      <point x="704" y="565" type="line"/>
    </contour>
    <contour>
      <point x="1158" y="322" type="line"/>
      <point x="1109" y="282"/>
      <point x="1049" y="235"/>
      <point x="1004" y="201" type="curve"/>
      <point x="981" y="213"/>
      <point x="969" y="235"/>
      <point x="969" y="268" type="curve" smooth="yes"/>
      <point x="969" y="316"/>
      <point x="1011" y="378"/>
      <point x="1083" y="412" type="curve"/>
      <point x="1108" y="393"/>
      <point x="1138" y="362"/>
      <point x="1162" y="336" type="curve"/>
      <point x="1217" y="379" type="line"/>
      <point x="1177" y="431"/>
      <point x="1089" y="527"/>
      <point x="1067" y="525" type="curve"/>
      <point x="910" y="525"/>
      <point x="749" y="386"/>
      <point x="749" y="253" type="curve" smooth="yes"/>
      <point x="749" y="151"/>
      <point x="854" y="87"/>
      <point x="995" y="87" type="curve"/>
      <point x="1052" y="140"/>
      <point x="1149" y="228"/>
      <point x="1198" y="275" type="curve"/>
    </contour>
    <contour>
      <point x="1455" y="597" type="line"/>
      <point x="1425" y="651"/>
      <point x="1367" y="673"/>
      <point x="1219" y="658" type="curve"/>
      <point x="1187" y="428" type="line"/>
      <point x="1165" y="410" type="line"/>
      <point x="1166" y="353" type="line"/>
      <point x="1140" y="245" type="line"/>
      <point x="1159" y="216" type="line"/>
      <point x="1110" y="150" type="line"/>
      <point x="1090" y="64" type="line"/>
      <point x="1180" y="-5"/>
      <point x="1314" y="-17"/>
      <point x="1353" y="25" type="curve"/>
      <point x="1357" y="419" type="line"/>
    </contour>
  </outline>
</glyph>
<glyph name="dvmAU_Reph" format="1">
  <advance width="380"/>
  <outline>
    <contour>
      <point x="383" y="614" type="line"/>
      <point x="353" y="668"/>
      <point x="295" y="673"/>
      <point x="147" y="658" type="curve"/>
      <point x="18" y="64" type="line"/>
      <point x="108" y="-5"/>
      <point x="242" y="-17"/>
      <point x="281" y="25" type="curve"/>
      <point x="285" y="419" type="line"/>
    </contour>
    <contour>
      <point x="508" y="565" type="line"/>
      <point x="525" y="577"/>
      <point x="533" y="595"/>
      <point x="537" y="612" type="curve"/>
      <point x="525" y="627" type="line"/>
      <point x="2" y="627" type="line"/>
      <point x="-15" y="615"/>
      <point x="-27" y="597"/>
      <point x="-35" y="584" type="curve"/>
      <point x="-15" y="565" type="line"/>
    </contour>
    <contour>
      <point x="233" y="837" type="curve"/>
      <point x="225" y="831" type="line"/>
      <point x="157" y="923"/>
      <point x="74" y="990"/>
      <point x="14" y="990" type="curve" smooth="yes"/>
      <point x="-40" y="990"/>
      <point x="-103" y="954"/>
      <point x="-128" y="925" type="curve"/>
      <point x="-146" y="855"/>
      <point x="-96" y="814"/>
      <point x="-10" y="782" type="curve"/>
      <point x="83" y="868" type="line"/>
      <point x="146" y="829"/>
      <point x="205" y="784"/>
      <point x="238" y="731" type="curve"/>
      <point x="231" y="724" type="line"/>
      <point x="182" y="763"/>
      <point x="133" y="793"/>
      <point x="84" y="808" type="curve"/>
      <point x="30" y="794"/>
      <point x="-6" y="763"/>
      <point x="-28" y="726" type="curve"/>
      <point x="-15" y="683"/>
      <point x="51" y="660"/>
      <point x="99" y="663" type="curve"/>
      <point x="131" y="699" type="line"/>
      <point x="165" y="692"/>
      <point x="197" y="679"/>
      <point x="229" y="663" type="curve"/>
      <point x="275" y="665"/>
      <point x="301" y="691"/>
      <point x="306" y="708" type="curve"/>
      <point x="296" y="764"/>
      <point x="288" y="796"/>
      <point x="284" y="849" type="curve"/>
      <point x="298" y="858" type="line"/>
      <point x="334" y="843"/>
      <point x="361" y="821"/>
      <point x="405" y="774" type="curve"/>
      <point x="495" y="800"/>
      <point x="535" y="853"/>
      <point x="513" y="915" type="curve"/>
      <point x="450" y="968"/>
      <point x="380" y="986"/>
      <point x="279" y="990" type="curve"/>
      <point x="250" y="981"/>
      <point x="209" y="972"/>
      <point x="172" y="926" type="curve"/>
      <point x="188" y="902"/>
      <point x="219" y="859"/>
    </contour>
  </outline>
</glyph>
<glyph name="dvmI.a02" format="1">
  <advance width="380"/>
  <outline>
    <contour>
      <point x="309" y="1007"/>
      <point x="177" y="922"/>
      <point x="137" y="837" type="curve"/>
      <point x="139" y="627" type="line"/>
      <point x="2" y="627" type="line"/>
      <point x="-15" y="615"/>
      <point x="-27" y="597"/>
      <point x="-35" y="584" type="curve"/>
      <point x="-15" y="565" type="line"/>
      <point x="133" y="565" type="line"/>
      <point x="18" y="64" type="line"/>
      <point x="108" y="-5"/>
      <point x="242" y="-17"/>
      <point x="281" y="25" type="curve"/>
      <point x="278" y="247"/>
      <point x="289" y="420"/>
      <point x="305" y="565" type="curve"/>
      <point x="508" y="565" type="line"/>
      <point x="525" y="577"/>
      <point x="533" y="595"/>
      <point x="537" y="612" type="curve"/>
      <point x="525" y="627" type="line"/>
      <point x="313" y="627" type="line"/>
      <point x="353" y="859" type="line"/>
      <point x="368" y="867" type="line"/>
      <point x="496" y="825"/>
      <point x="592" y="774"/>
      <point x="696" y="681" type="curve"/>
      <point x="783" y="691"/>
      <point x="843" y="736"/>
      <point x="853" y="798" type="curve"/>
      <point x="756" y="907"/>
      <point x="538" y="1007"/>
      <point x="396" y="1007" type="curve" smooth="yes"/>
    </contour>
    <contour>
      <point x="763" y="734" type="move" name="abvm_Reph_alt"/>
    </contour>
  </outline>
</glyph>
<glyph name="dvmI.a03" format="1">
  <advance width="380"/>
  <outline>
    <contour>
      <point x="309" y="1006"/>
      <point x="177" y="920"/>
      <point x="137" y="833" type="curve"/>
      <point x="139" y="627" type="line"/>
      <point x="2" y="627" type="line"/>
      <point x="-15" y="615"/>
      <point x="-27" y="597"/>
      <point x="-35" y="584" type="curve"/>
      <point x="-15" y="565" type="line"/>
      <point x="133" y="565" type="line"/>
      <point x="18" y="64" type="line"/>
      <point x="108" y="-5"/>
      <point x="242" y="-17"/>
      <point x="281" y="25" type="curve"/>
      <point x="277" y="246"/>
      <point x="289" y="420"/>
      <point x="305" y="565" type="curve"/>
      <point x="508" y="565" type="line"/>
      <point x="525" y="577"/>
      <point x="533" y="595"/>
      <point x="537" y="612" type="curve"/>
      <point x="525" y="627" type="line"/>
      <point x="313" y="627" type="line"/>
      <point x="355" y="857" type="line"/>
      <point x="371" y="865" type="line"/>
      <point x="513" y="829"/>
      <point x="645" y="776"/>
      <point x="770" y="682" type="curve"/>
      <point x="855" y="693"/>
      <point x="912" y="738"/>
      <point x="920" y="798" type="curve"/>
      <point x="800" y="909"/>
      <point x="560" y="1006"/>
      <point x="403" y="1006" type="curve" smooth="yes"/>
    </contour>
    <contour>
      <point x="829" y="734" type="move" name="abvm_Reph_alt"/>
    </contour>
  </outline>
</glyph>
<glyph name="dvmI.a04" format="1">
  <advance width="380"/>
  <outline>
    <contour>
      <point x="309" y="1005"/>
      <point x="178" y="918"/>
      <point x="136" y="829" type="curve"/>
      <point x="138" y="627" type="line"/>
      <point x="2" y="627" type="line"/>
      <point x="-15" y="615"/>
      <point x="-27" y="597"/>
      <point x="-35" y="584" type="curve"/>
      <point x="-15" y="565" type="line"/>
      <point x="132" y="565" type="line"/>
      <point x="18" y="64" type="line"/>
      <point x="108" y="-5"/>
      <point x="242" y="-17"/>
      <point x="281" y="25" type="curve"/>
      <point x="277" y="246"/>
      <point x="289" y="420"/>
      <point x="303" y="565" type="curve"/>
      <point x="508" y="565" type="line"/>
      <point x="525" y="577"/>
      <point x="533" y="595"/>
      <point x="537" y="612" type="curve"/>
      <point x="525" y="627" type="line"/>
      <point x="312" y="627" type="line"/>
      <point x="357" y="855" type="line"/>
      <point x="373" y="864" type="line"/>
      <point x="530" y="832"/>
      <point x="697" y="778"/>
      <point x="843" y="683" type="curve"/>
      <point x="927" y="695"/>
      <point x="980" y="740"/>
      <point x="987" y="798" type="curve"/>
      <point x="845" y="911"/>
      <point x="583" y="1005"/>
      <point x="411" y="1005" type="curve" smooth="yes"/>
    </contour>
    <contour>
      <point x="895" y="734" type="move" name="abvm_Reph_alt"/>
    </contour>
  </outline>
</glyph>
<glyph name="dvmI.a07" format="1">
  <advance width="379"/>
  <outline>
    <contour>
      <point x="311" y="1003"/>
      <point x="180" y="911"/>
      <point x="136" y="818" type="curve"/>
      <point x="138" y="627" type="line"/>
      <point x="2" y="627" type="line"/>
      <point x="-15" y="615"/>
      <point x="-27" y="597"/>
      <point x="-35" y="584" type="curve"/>
      <point x="-15" y="565" type="line"/>
      <point x="132" y="565" type="line"/>
      <point x="18" y="64" type="line"/>
      <point x="108" y="-5"/>
      <point x="242" y="-17"/>
      <point x="281" y="25" type="curve"/>
      <point x="277" y="245"/>
      <point x="289" y="419"/>
      <point x="301" y="565" type="curve"/>
      <point x="508" y="565" type="line"/>
      <point x="525" y="577"/>
      <point x="533" y="595"/>
      <point x="537" y="612" type="curve"/>
      <point x="525" y="627" type="line"/>
      <point x="310" y="627" type="line"/>
      <point x="364" y="850" type="line"/>
      <point x="380" y="859" type="line"/>
      <point x="582" y="843"/>
      <point x="854" y="784"/>
      <point x="1063" y="686" type="curve"/>
      <point x="1143" y="702"/>
      <point x="1187" y="745"/>
      <point x="1188" y="798" type="curve"/>
      <point x="979" y="917"/>
      <point x="651" y="1003"/>
      <point x="434" y="1003" type="curve" smooth="yes"/>
    </contour>
    <contour>
      <point x="1092" y="735" type="move" name="abvm_Reph_alt"/>
    </contour>
  </outline>
</glyph>
<glyph name="dvmI.a10" format="1">
  <advance width="379"/>
  <outline>
    <contour>
      <point x="312" y="1002"/>
      <point x="182" y="905"/>
      <point x="136" y="807" type="curve"/>
      <point x="138" y="627" type="line"/>
      <point x="2" y="627" type="line"/>
      <point x="-15" y="615"/>
      <point x="-27" y="597"/>
      <point x="-35" y="584" type="curve"/>
      <point x="-15" y="565" type="line"/>
      <point x="133" y="565" type="line"/>
      <point x="18" y="64" type="line"/>
      <point x="108" y="-5"/>
      <point x="242" y="-17"/>
      <point x="281" y="25" type="curve"/>
      <point x="277" y="245"/>
      <point x="289" y="419"/>
      <point x="299" y="565" type="curve"/>
      <point x="508" y="565" type="line"/>
      <point x="525" y="577"/>
      <point x="533" y="595"/>
      <point x="537" y="612" type="curve"/>
      <point x="525" y="627" type="line"/>
      <point x="308" y="627" type="line"/>
      <point x="370" y="845" type="line"/>
      <point x="387" y="855" type="line"/>
      <point x="634" y="854"/>
      <point x="1011" y="791"/>
      <point x="1284" y="690" type="curve"/>
      <point x="1360" y="710"/>
      <point x="1394" y="751"/>
      <point x="1390" y="799" type="curve"/>
      <point x="1114" y="924"/>
      <point x="720" y="1002"/>
      <point x="457" y="1002" type="curve" smooth="yes"/>
    </contour>
    <contour>
      <point x="1290" y="735" type="move" name="abvm_Reph_alt"/>
    </contour>
  </outline>
</glyph>
<glyph name="dvmI.a11" format="1">
  <advance width="379"/>
  <outline>
    <contour>
      <point x="313" y="1001"/>
      <point x="183" y="903"/>
      <point x="136" y="803" type="curve"/>
      <point x="139" y="627" type="line"/>
      <point x="2" y="627" type="line"/>
      <point x="-15" y="615"/>
      <point x="-27" y="597"/>
      <point x="-35" y="584" type="curve"/>
      <point x="-15" y="565" type="line"/>
      <point x="133" y="565" type="line"/>
      <point x="18" y="64" type="line"/>
      <point x="108" y="-5"/>
      <point x="242" y="-17"/>
      <point x="281" y="25" type="curve"/>
      <point x="277" y="245"/>
      <point x="289" y="419"/>
      <point x="299" y="565" type="curve"/>
      <point x="508" y="565" type="line"/>
      <point x="525" y="577"/>
      <point x="533" y="595"/>
      <point x="537" y="612" type="curve"/>
      <point x="525" y="627" type="line"/>
      <point x="307" y="627" type="line"/>
      <point x="373" y="843" type="line"/>
      <point x="390" y="853" type="line"/>
      <point x="652" y="858"/>
      <point x="1064" y="793"/>
      <point x="1358" y="691" type="curve"/>
      <point x="1432" y="712"/>
      <point x="1463" y="753"/>
      <point x="1457" y="799" type="curve"/>
      <point x="1159" y="926"/>
      <point x="743" y="1001"/>
      <point x="465" y="1001" type="curve" smooth="yes"/>
    </contour>
    <contour>
      <point x="1355" y="735" type="move" name="abvm_Reph_alt"/>
    </contour>
  </outline>
</glyph>
<glyph name="dvmI.a16" format="1">
  <advance width="379"/>
  <outline>
    <contour>
      <point x="316" y="997"/>
      <point x="187" y="891"/>
      <point x="136" y="784" type="curve"/>
      <point x="139" y="627" type="line"/>
      <point x="2" y="627" type="line"/>
      <point x="-15" y="615"/>
      <point x="-27" y="597"/>
      <point x="-35" y="584" type="curve"/>
      <point x="-15" y="565" type="line"/>
      <point x="133" y="565" type="line"/>
      <point x="18" y="64" type="line"/>
      <point x="108" y="-5"/>
      <point x="242" y="-17"/>
      <point x="281" y="25" type="curve"/>
      <point x="277" y="243"/>
      <point x="290" y="417"/>
      <point x="295" y="565" type="curve"/>
      <point x="508" y="565" type="line"/>
      <point x="525" y="577"/>
      <point x="533" y="595"/>
      <point x="537" y="612" type="curve"/>
      <point x="525" y="627" type="line"/>
      <point x="304" y="627" type="line"/>
      <point x="383" y="834" type="line"/>
      <point x="402" y="845" type="line"/>
      <point x="738" y="876"/>
      <point x="1326" y="804"/>
      <point x="1725" y="696" type="curve"/>
      <point x="1763" y="729"/>
      <point x="1780" y="767"/>
      <point x="1756" y="811" type="curve"/>
      <point x="1383" y="936"/>
      <point x="857" y="997"/>
      <point x="504" y="997" type="curve" smooth="yes"/>
    </contour>
    <contour>
      <point x="1691" y="665" type="move" name="abvm_Reph_alt"/>
    </contour>
  </outline>
</glyph>
<glyph name="dvmI.a17" format="1">
  <advance width="378"/>
  <outline>
    <contour>
      <point x="316" y="997"/>
      <point x="188" y="890"/>
      <point x="136" y="781" type="curve"/>
      <point x="138" y="627" type="line"/>
      <point x="2" y="627" type="line"/>
      <point x="-15" y="615"/>
      <point x="-27" y="597"/>
      <point x="-35" y="584" type="curve"/>
      <point x="-15" y="565" type="line"/>
      <point x="133" y="565" type="line"/>
      <point x="18" y="64" type="line"/>
      <point x="108" y="-5"/>
      <point x="242" y="-17"/>
      <point x="281" y="25" type="curve"/>
      <point x="277" y="243"/>
      <point x="289" y="418"/>
      <point x="294" y="565" type="curve"/>
      <point x="508" y="565" type="line"/>
      <point x="525" y="577"/>
      <point x="533" y="595"/>
      <point x="537" y="612" type="curve"/>
      <point x="525" y="627" type="line"/>
      <point x="303" y="627" type="line"/>
      <point x="385" y="833" type="line"/>
      <point x="404" y="844" type="line"/>
      <point x="755" y="880"/>
      <point x="1378" y="807"/>
      <point x="1798" y="697" type="curve"/>
      <point x="1842" y="729"/>
      <point x="1859" y="768"/>
      <point x="1833" y="809" type="curve"/>
      <point x="1427" y="938"/>
      <point x="879" y="997"/>
      <point x="512" y="997" type="curve" smooth="yes"/>
    </contour>
    <contour>
      <point x="1762" y="666" type="move" name="abvm_Reph_alt"/>
    </contour>
  </outline>
</glyph>
<glyph name="dvmI.a19" format="1">
  <advance width="379"/>
  <outline>
    <contour>
      <point x="318" y="996"/>
      <point x="189" y="886"/>
      <point x="136" y="773" type="curve"/>
      <point x="139" y="627" type="line"/>
      <point x="2" y="627" type="line"/>
      <point x="-15" y="615"/>
      <point x="-27" y="597"/>
      <point x="-35" y="584" type="curve"/>
      <point x="-15" y="565" type="line"/>
      <point x="133" y="565" type="line"/>
      <point x="18" y="64" type="line"/>
      <point x="108" y="-5"/>
      <point x="242" y="-17"/>
      <point x="281" y="25" type="curve"/>
      <point x="277" y="243"/>
      <point x="290" y="417"/>
      <point x="293" y="565" type="curve"/>
      <point x="508" y="565" type="line"/>
      <point x="525" y="577"/>
      <point x="533" y="595"/>
      <point x="537" y="612" type="curve"/>
      <point x="525" y="627" type="line"/>
      <point x="302" y="627" type="line"/>
      <point x="390" y="830" type="line"/>
      <point x="409" y="841" type="line"/>
      <point x="790" y="888"/>
      <point x="1483" y="811"/>
      <point x="1946" y="699" type="curve"/>
      <point x="2009" y="731"/>
      <point x="2015" y="769"/>
      <point x="1994" y="801" type="curve"/>
      <point x="1517" y="942"/>
      <point x="925" y="996"/>
      <point x="527" y="996" type="curve" smooth="yes"/>
    </contour>
    <contour>
      <point x="1907" y="668" type="move" name="abvm_Reph_alt"/>
    </contour>
  </outline>
</glyph>
